<svg width="240" height="240" viewBox="0 0 240 240" fill="none" xmlns="http://www.w3.org/2000/svg">
<g clip-path="url(#clip0_1231_8839)">
<rect width="240" height="240" fill="#F3F5F6"/>
<path d="M178.62 148.701C185.3 150.309 191.229 154.152 195.424 159.593C199.796 165.148 201.411 171.336 202.013 178.491L207.029 248.927H32.9706L37.9867 178.491C38.7993 171.338 40.1762 165.143 44.5527 159.593C48.9293 154.043 54.5323 150.411 61.3567 148.701L84.0996 142.932C94.1318 150.194 105.451 154.039 118.056 154.469C131.934 154.899 144.534 151.053 155.855 142.932L178.62 148.701ZM120 41.7023C110.993 41.6573 102.14 44.0398 94.3726 48.5994C84.6073 54.2404 76.976 62.9457 72.6621 73.3654C68.3482 83.7852 67.5927 95.3371 70.5127 106.23C73.4328 117.123 79.8652 126.748 88.8126 133.613C97.76 140.477 108.722 144.198 120 144.198C131.277 144.198 142.24 140.477 151.187 133.613C160.135 126.748 166.567 117.123 169.487 106.23C172.407 95.3371 171.652 83.7852 167.338 73.3654C163.024 62.9457 155.392 54.2404 145.627 48.5994C137.859 44.0398 129.007 41.6573 120 41.7023Z" fill="#DADFE2"/>
</g>
<defs>
<clipPath id="clip0_1231_8839">
<rect width="240" height="240" fill="white"/>
</clipPath>
</defs>
</svg>
