<svg aria-hidden="true" style="position: absolute; width: 0; height: 0;" width="0" height="0" version="1.1" xmlns="http://www.w3.org/2000/svg">
<defs>
<!-- Interface -->
<symbol id="icon-hamburger" viewBox="0 0 32 32">
	<path d="m29 8h-26c-1.1045 0-2-.8955-2-2s.8955-2 2-2h26c1.1045 0 2 .8955 2 2s-.8955 2-2 2z"/>
	<path d="m29 28h-26c-1.1045 0-2-.8955-2-2s.8955-2 2-2h26c1.1045 0 2 .8955 2 2s-.8955 2-2 2z"/>
	<path d="m29 18h-26c-1.1045 0-2-.8955-2-2s.8955-2 2-2h26c1.1045 0 2 .8955 2 2s-.8955 2-2 2z"/>
</symbol>
<symbol id="icon-search" viewBox="0 0 512 512">
	<path d="M508.5 468.9L387.1 347.5c-2.3-2.3-5.3-3.5-8.5-3.5h-13.2c31.5-36.5 50.6-84 50.6-136C416 93.1 322.9 0 208 0S0 93.1 0 208s93.1 208 208 208c52 0 99.5-19.1 136-50.6v13.2c0 3.2 1.3 6.2 3.5 8.5l121.4 121.4c4.7 4.7 12.3 4.7 17 0l22.6-22.6c4.7-4.7 4.7-12.3 0-17zM208 368c-88.4 0-160-71.6-160-160S119.6 48 208 48s160 71.6 160 160-71.6 160-160 160z"/>
</symbol>
<symbol id="icon-close" viewBox="0 0 384 512">
	<path d="M231.6 256l130.1-130.1c4.7-4.7 4.7-12.3 0-17l-22.6-22.6c-4.7-4.7-12.3-4.7-17 0L192 216.4 61.9 86.3c-4.7-4.7-12.3-4.7-17 0l-22.6 22.6c-4.7 4.7-4.7 12.3 0 17L152.4 256 22.3 386.1c-4.7 4.7-4.7 12.3 0 17l22.6 22.6c4.7 4.7 12.3 4.7 17 0L192 295.6l130.1 130.1c4.7 4.7 12.3 4.7 17 0l22.6-22.6c4.7-4.7 4.7-12.3 0-17L231.6 256z"/>
</symbol>
<symbol id="icon-refresh" viewBox="0 0 33 32">
	<path d="M1,0h1.8C3.2,0,3.6.4,3.6.8l-.2,6.4C6.3,2.8,11.2,0,16.8,0c8.8,0,16,7.2,15.9,16,0,8.8-7.2,16-16,16s-7.9-1.6-10.7-4.1c-.3-.3-.3-.8,0-1.1l1.3-1.3c.3-.3.8-.3,1.1,0,2.2,2,5.2,3.2,8.4,3.2,7,0,12.6-5.7,12.6-12.6S23.7,3.4,16.8,3.4s-9.5,3.1-11.5,7.4l8.2-.2c.4,0,.8.3.8.8v1.8c0,.4-.3.8-.8.8H1c-.4,0-.8-.3-.8-.8V.8C.2.3.6,0,1,0Z"/>
</symbol>
<symbol id="icon-check" viewBox="0 0 32 25">
	<path d="M28.6.4L10.2,18.8l-6.8-6.8c-.3-.3-.9-.3-1.2,0l-2,2c-.3.3-.3.9,0,1.2l9.3,9.3c.3.3.9.3,1.2,0L31.8,3.6c.3-.3.3-.9,0-1.2l-2-2c-.3-.3-.9-.3-1.2,0Z"/>
</symbol>
<symbol id="icon-map-pin" viewBox="0 0 384 512">
	<path d="M172.268 501.67C26.97 291.031 0 269.413 0 192 0 85.961 85.961 0 192 0s192 85.961 192 192c0 77.413-26.97 99.031-172.268 309.67-9.535 13.774-29.93 13.773-39.464 0zM192 272c44.183 0 80-35.817 80-80s-35.817-80-80-80-80 35.817-80 80 35.817 80 80 80z"/>
</symbol>
<symbol id="icon-plus" viewBox="0 0 32 32">
	<path d="M31.1,14h-13.1V.9c0-.5-.4-.9-.9-.9h-2.3c-.5,0-.9.4-.9.9v13.1H.9c-.5,0-.9.4-.9.9v2.3c0,.5.4.9.9.9h13.1v13.1c0,.5.4.9.9.9h2.3c.5,0,.9-.4.9-.9v-13.1h13.1c.5,0,.9-.4.9-.9v-2.3c0-.5-.4-.9-.9-.9Z"/>
</symbol>
<symbol id="icon-minus" viewBox="0 0 32 32">
	<path d="M31.1,18c.5,0,.9-.4.9-.9v-2.3c0-.5-.4-.9-.9-.9H.9c-.5,0-.9.4-.9.9v2.3c0,.5.4.9.9.9h30.3Z"/>
</symbol>
<symbol id="icon-resize" viewBox="0 0 32 32">
	<path d="M31.7,3.6L3.7,31.6c-.2.2-.5.4-.7.4s-.5-.1-.7-.4l-1.9-1.9C.1,29.5,0,29.3,0,29s0-.5.3-.8L28.3.2c.2-.2.5-.2.7-.2s.5,0,.7.2l1.9,1.9c.2.2.3.5.3.8s-.1.5-.3.7ZM31.6,23l-8.6,8.6c-.2.2-.5.4-.7.4s-.5-.1-.7-.4l-1.9-1.9c-.2-.2-.3-.4-.3-.7s0-.5.3-.8l8.6-8.6c.2-.2.5-.2.7-.2s.5,0,.7.2l1.9,1.9c.2.2.3.5.3.8s-.1.5-.3.7Z"/>
</symbol>
<symbol id="icon-user" viewBox="0 0 32 32">
	<path d="M26.4,18.2c1.9.6,3.4,1.7,4.4,3.3.8,1.2,1.2,2.6,1.2,4.1v1.6c0,1.4-.5,2.5-1.4,3.4-1,1-2.1,1.4-3.4,1.4H4.9c-1.4,0-2.5-.4-3.4-1.4-1-.9-1.4-2.1-1.4-3.4v-1.6c0-1.4.4-2.8,1.2-4.1,1-1.6,2.4-2.7,4.4-3.2l1.3-.4c-1.4-1.9-2.1-4.1-2.1-6.6s.5-3.9,1.5-5.6c1-1.7,2.3-3.1,4.1-4.1,1.8-1,3.6-1.5,5.7-1.5s3.9.5,5.6,1.5c1.7,1,3.1,2.4,4.1,4.1,1,1.8,1.5,3.6,1.5,5.6s-.8,4.6-2.1,6.6l1.3.4ZM16,3c-1.5,0-2.9.4-4.1,1.1-1.3.8-2.3,1.8-3,3-.8,1.3-1.1,2.6-1.1,4.1s.4,2.9,1.1,4.1c.7,1.2,1.7,2.2,3,3,1.2.8,2.6,1.1,4.1,1.1s2.9-.4,4.1-1.1c1.2-.7,2.2-1.7,3-3,.8-1.3,1.1-2.6,1.1-4.1s-.4-2.9-1.1-4.1c-.8-1.2-1.8-2.2-3-3-1.2-.7-2.6-1.1-4.1-1.1ZM29,27.1v-1.6c0-1-.3-1.9-.9-2.8-.6-.8-1.4-1.4-2.4-1.7l-2.9-.8c-2,1.5-4.3,2.2-6.8,2.2s-4.8-.7-6.8-2.2l-2.9.8c-1,.3-1.8.9-2.4,1.7-.6.9-.9,1.8-.9,2.8v1.6c0,.6.1,1,.5,1.4.4.4.8.5,1.4.5h22.2c.5,0,.9-.1,1.3-.5.4-.4.6-.8.6-1.4Z"/>
</symbol>
<symbol id="icon-calendar" viewBox="0 0 448 512">
	<path d="M148 288h-40c-6.6 0-12-5.4-12-12v-40c0-6.6 5.4-12 12-12h40c6.6 0 12 5.4 12 12v40c0 6.6-5.4 12-12 12zm108-12v-40c0-6.6-5.4-12-12-12h-40c-6.6 0-12 5.4-12 12v40c0 6.6 5.4 12 12 12h40c6.6 0 12-5.4 12-12zm96 0v-40c0-6.6-5.4-12-12-12h-40c-6.6 0-12 5.4-12 12v40c0 6.6 5.4 12 12 12h40c6.6 0 12-5.4 12-12zm-96 96v-40c0-6.6-5.4-12-12-12h-40c-6.6 0-12 5.4-12 12v40c0 6.6 5.4 12 12 12h40c6.6 0 12-5.4 12-12zm-96 0v-40c0-6.6-5.4-12-12-12h-40c-6.6 0-12 5.4-12 12v40c0 6.6 5.4 12 12 12h40c6.6 0 12-5.4 12-12zm192 0v-40c0-6.6-5.4-12-12-12h-40c-6.6 0-12 5.4-12 12v40c0 6.6 5.4 12 12 12h40c6.6 0 12-5.4 12-12zm96-260v352c0 26.5-21.5 48-48 48H48c-26.5 0-48-21.5-48-48V112c0-26.5 21.5-48 48-48h48V12c0-6.6 5.4-12 12-12h40c6.6 0 12 5.4 12 12v52h128V12c0-6.6 5.4-12 12-12h40c6.6 0 12 5.4 12 12v52h48c26.5 0 48 21.5 48 48zm-48 346V160H48v298c0 3.3 2.7 6 6 6h340c3.3 0 6-2.7 6-6z"/>
</symbol>
<symbol id="icon-calendar-add" viewBox="0 0 448 512">
	<path d="M336 292v24c0 6.6-5.4 12-12 12h-76v76c0 6.6-5.4 12-12 12h-24c-6.6 0-12-5.4-12-12v-76h-76c-6.6 0-12-5.4-12-12v-24c0-6.6 5.4-12 12-12h76v-76c0-6.6 5.4-12 12-12h24c6.6 0 12 5.4 12 12v76h76c6.6 0 12 5.4 12 12zm112-180v352c0 26.5-21.5 48-48 48H48c-26.5 0-48-21.5-48-48V112c0-26.5 21.5-48 48-48h48V12c0-6.6 5.4-12 12-12h40c6.6 0 12 5.4 12 12v52h128V12c0-6.6 5.4-12 12-12h40c6.6 0 12 5.4 12 12v52h48c26.5 0 48 21.5 48 48zm-48 346V160H48v298c0 3.3 2.7 6 6 6h340c3.3 0 6-2.7 6-6z"/>
</symbol>
<symbol id="icon-envelope-o" viewBox="0 0 512 512">
	<path d="M464 64H48C21.49 64 0 85.49 0 112v288c0 26.51 21.49 48 48 48h416c26.51 0 48-21.49 48-48V112c0-26.51-21.49-48-48-48zm0 48v40.805c-22.422 18.259-58.168 46.651-134.587 106.49-16.841 13.247-50.201 45.072-73.413 44.701-23.208.375-56.579-31.459-73.413-44.701C106.18 199.465 70.425 171.067 48 152.805V112h416zM48 400V214.398c22.914 18.251 55.409 43.862 104.938 82.646 21.857 17.205 60.134 55.186 103.062 54.955 42.717.231 80.509-37.199 103.053-54.947 49.528-38.783 82.032-64.401 104.947-82.653V400H48z"/>
</symbol>
<symbol id="icon-download" viewBox="0 0 576 512">
	<path d="M528 288h-92.1l46.1-46.1c30.1-30.1 8.8-81.9-33.9-81.9h-64V48c0-26.5-21.5-48-48-48h-96c-26.5 0-48 21.5-48 48v112h-64c-42.6 0-64.2 51.7-33.9 81.9l46.1 46.1H48c-26.5 0-48 21.5-48 48v128c0 26.5 21.5 48 48 48h480c26.5 0 48-21.5 48-48V336c0-26.5-21.5-48-48-48zm-400-80h112V48h96v160h112L288 368 128 208zm400 256H48V336h140.1l65.9 65.9c18.8 18.8 49.1 18.7 67.9 0l65.9-65.9H528v128zm-88-64c0-13.3 10.7-24 24-24s24 10.7 24 24-10.7 24-24 24-24-10.7-24-24z"/>
</symbol>
<symbol id="icon-home" viewBox="0 0 576 512">
	<path d="M488 312.7V456c0 13.3-10.7 24-24 24H348c-6.6 0-12-5.4-12-12V356c0-6.6-5.4-12-12-12h-72c-6.6 0-12 5.4-12 12v112c0 6.6-5.4 12-12 12H112c-13.3 0-24-10.7-24-24V312.7c0-3.6 1.6-7 4.4-9.3l188-154.8c4.4-3.6 10.8-3.6 15.3 0l188 154.8c2.7 2.3 4.3 5.7 4.3 9.3zm83.6-60.9L488 182.9V44.4c0-6.6-5.4-12-12-12h-56c-6.6 0-12 5.4-12 12V117l-89.5-73.7c-17.7-14.6-43.3-14.6-61 0L4.4 251.8c-5.1 4.2-5.8 11.8-1.6 16.9l25.5 31c4.2 5.1 11.8 5.8 16.9 1.6l235.2-193.7c4.4-3.6 10.8-3.6 15.3 0l235.2 193.7c5.1 4.2 12.7 3.5 16.9-1.6l25.5-31c4.2-5.2 3.4-12.7-1.7-16.9z"/>
</symbol>
<symbol id="icon-clock-o" viewBox="0 0 512 512">
	<path d="M256 8C119 8 8 119 8 256s111 248 248 248 248-111 248-248S393 8 256 8zm0 448c-110.5 0-200-89.5-200-200S145.5 56 256 56s200 89.5 200 200-89.5 200-200 200zm61.8-104.4l-84.9-61.7c-3.1-2.3-4.9-5.9-4.9-9.7V116c0-6.6 5.4-12 12-12h32c6.6 0 12 5.4 12 12v141.7l66.8 48.6c5.4 3.9 6.5 11.4 2.6 16.8L334.6 349c-3.9 5.3-11.4 6.5-16.8 2.6z"/>
</symbol>
<symbol id="icon-history" viewBox="0 0 512 512">
	<path d="M504 255.532c.252 136.64-111.182 248.372-247.822 248.468-64.014.045-122.373-24.163-166.394-63.942-5.097-4.606-5.3-12.543-.443-17.4l16.96-16.96c4.529-4.529 11.776-4.659 16.555-.395C158.208 436.843 204.848 456 256 456c110.549 0 200-89.468 200-200 0-110.549-89.468-200-200-200-55.52 0-105.708 22.574-141.923 59.043l49.091 48.413c7.641 7.535 2.305 20.544-8.426 20.544H26.412c-6.627 0-12-5.373-12-12V45.443c0-10.651 12.843-16.023 20.426-8.544l45.097 44.474C124.866 36.067 187.15 8 256 8c136.811 0 247.747 110.781 248 247.532zm-167.058 90.173l14.116-19.409c3.898-5.36 2.713-12.865-2.647-16.763L280 259.778V116c0-6.627-5.373-12-12-12h-24c-6.627 0-12 5.373-12 12v168.222l88.179 64.13c5.36 3.897 12.865 2.712 16.763-2.647z"/>
</symbol>
<symbol id="icon-external-link" viewBox="0 0 576 512">
	<path d="M576 24v127.984c0 21.461-25.96 31.98-40.971 16.971l-35.707-35.709-243.523 243.523c-9.373 9.373-24.568 9.373-33.941 0l-22.627-22.627c-9.373-9.373-9.373-24.569 0-33.941L442.756 76.676l-35.703-35.705C391.982 25.9 402.656 0 424.024 0H552c13.255 0 24 10.745 24 24zM407.029 270.794l-16 16A23.999 23.999 0 0 0 384 303.765V448H64V128h264a24.003 24.003 0 0 0 16.97-7.029l16-16C376.089 89.851 365.381 64 344 64H48C21.49 64 0 85.49 0 112v352c0 26.51 21.49 48 48 48h352c26.51 0 48-21.49 48-48V287.764c0-21.382-25.852-32.09-40.971-16.97z"/>
</symbol>
<symbol id="icon-lock" viewBox="0 0 448 512">
	<path d="M400 224h-24v-72C376 68.2 307.8 0 224 0S72 68.2 72 152v72H48c-26.5 0-48 21.5-48 48v192c0 26.5 21.5 48 48 48h352c26.5 0 48-21.5 48-48V272c0-26.5-21.5-48-48-48zM264 392c0 22.1-17.9 40-40 40s-40-17.9-40-40v-48c0-22.1 17.9-40 40-40s40 17.9 40 40v48zm32-168H152v-72c0-39.7 32.3-72 72-72s72 32.3 72 72v72z"/>
</symbol>
<symbol id="icon-play" viewBox="0 0 448 512">
	<path d="M424.4 214.7L72.4 6.6C43.8-10.3 0 6.1 0 47.9V464c0 37.5 40.7 60.1 72.4 41.3l352-208c31.4-18.5 31.5-64.1 0-82.6z"/>
</symbol>
<symbol id="icon-feed" viewBox="0 0 448 512">
	<path d="M128.081 415.959c0 35.369-28.672 64.041-64.041 64.041S0 451.328 0 415.959s28.672-64.041 64.041-64.041 64.04 28.673 64.04 64.041zm175.66 47.25c-8.354-154.6-132.185-278.587-286.95-286.95C7.656 175.765 0 183.105 0 192.253v48.069c0 8.415 6.49 15.472 14.887 16.018 111.832 7.284 201.473 96.702 208.772 208.772.547 8.397 7.604 14.887 16.018 14.887h48.069c9.149.001 16.489-7.655 15.995-16.79zm144.249.288C439.596 229.677 251.465 40.445 16.503 32.01 7.473 31.686 0 38.981 0 48.016v48.068c0 8.625 6.835 15.645 15.453 15.999 191.179 7.839 344.627 161.316 352.465 352.465.353 8.618 7.373 15.453 15.999 15.453h48.068c9.034-.001 16.329-7.474 16.005-16.504z"/>
</symbol>
<symbol id="icon-sort-up" viewBox="0 0 32 28">
	<path d="M.2,4.7L4.5.2c.3-.3.8-.3,1.1,0l4.2,4.5c.4.5.1,1.3-.5,1.3h-2.7v21.2c0,.4-.3.7-.7.7h-1.5c-.4,0-.7-.3-.7-.7V6H.8c-.7,0-1-.8-.5-1.3ZM14.8,6.5h16.5c.4,0,.7-.3.7-.7v-1.5c0-.4-.3-.7-.7-.7H14.8c-.4,0-.7.3-.7.7v1.5c0,.4.3.7.7.7ZM14,11.8v-1.5c0-.4.3-.7.7-.7h12.5c.4,0,.7.3.7.7v1.5c0,.4-.3.7-.7.7h-12.5c-.4,0-.7-.3-.7-.7ZM14,23.8v-1.5c0-.4.3-.7.7-.7h4.5c.4,0,.7.3.7.7v1.5c0,.4-.3.7-.7.7h-4.5c-.4,0-.7-.3-.7-.7ZM14,17.8v-1.5c0-.4.3-.7.7-.7h8.5c.4,0,.7.3.7.7v1.5c0,.4-.3.7-.7.7h-8.5c-.4,0-.7-.3-.7-.7Z"/>
</symbol>
<symbol id="icon-sort-down" viewBox="0 0 32 28">
	<path d="M9.8,23.3l-4.2,4.5c-.3.3-.8.3-1.1,0L.2,23.3c-.4-.5-.1-1.3.5-1.3h2.7V.7c0-.4.3-.7.7-.7h1.5c.4,0,.7.3.7.7v21.2h2.7c.7,0,1,.8.5,1.3ZM14.8,6.5h16.5c.4,0,.7-.3.7-.7v-1.5c0-.4-.3-.7-.7-.7H14.8c-.4,0-.7.3-.7.7v1.5c0,.4.3.7.7.7ZM14,11.7v-1.5c0-.4.3-.7.7-.7h12.5c.4,0,.7.3.7.7v1.5c0,.4-.3.7-.7.7h-12.5c-.4,0-.7-.3-.7-.7ZM14,23.7v-1.5c0-.4.3-.7.7-.7h4.5c.4,0,.7.3.7.7v1.5c0,.4-.3.7-.7.7h-4.5c-.4,0-.7-.3-.7-.7ZM14,17.7v-1.5c0-.4.3-.7.7-.7h8.5c.4,0,.7.3.7.7v1.5c0,.4-.3.7-.7.7h-8.5c-.4,0-.7-.3-.7-.7Z"/>
</symbol>

<!-- Arrows -->
<symbol id="icon-box-arrow-up" viewBox="0 0 16 16">
  <path fill-rule="evenodd" d="M3.5 6a.5.5 0 0 0-.5.5v8a.5.5 0 0 0 .5.5h9a.5.5 0 0 0 .5-.5v-8a.5.5 0 0 0-.5-.5h-2a.5.5 0 0 1 0-1h2A1.5 1.5 0 0 1 14 6.5v8a1.5 1.5 0 0 1-1.5 1.5h-9A1.5 1.5 0 0 1 2 14.5v-8A1.5 1.5 0 0 1 3.5 5h2a.5.5 0 0 1 0 1h-2z"/>
  <path fill-rule="evenodd" d="M7.646.146a.5.5 0 0 1 .708 0l3 3a.5.5 0 0 1-.708.708L8.5 1.707V10.5a.5.5 0 0 1-1 0V1.707L5.354 3.854a.5.5 0 1 1-.708-.708l3-3z"/>
</symbol>
<symbol id="icon-arrow-right" viewBox="0 0 32 32">
  <path d="M15.7.5l-1.4,1.4c-.3.3-.3.9,0,1.2l11.1,11.1H1c-.5,0-.9.4-.9.9v2c0,.5.4.9.9.9h24.3l-11,11c-.3.3-.3.9,0,1.2l1.4,1.4c.3.3.9.3,1.2,0l14.9-14.9c.3-.3.3-.9,0-1.2L16.8.5c-.3-.3-.9-.3-1.2,0h.1Z"/>
</symbol>
<symbol id="icon-arrow-down" viewBox="0 0 32 32">
  <path d="M31.6,15.7l-1.4-1.4c-.3-.3-.9-.3-1.2,0l-11.1,11.1V.9c0-.5-.4-.9-.9-.9h-2c-.5,0-.9.4-.9.9v24.5L3,14.2c-.3-.3-.9-.3-1.2,0l-1.4,1.4c-.3.3-.3.9,0,1.2l15,15c.3.3.9.3,1.2,0l15-15c.3-.3.3-.9,0-1.2h0Z"/>
</symbol>
<symbol id="icon-arrow-left" viewBox="0 0 32 32">
  <path d="M16.4,31.6l1.4-1.4c.3-.3.3-.9,0-1.2l-11.1-11.1h24.4c.5,0,.9-.4.9-.9v-2c0-.5-.4-.9-.9-.9H6.8L17.8,3.1c.3-.3.3-.9,0-1.2l-1.4-1.4c-.3-.3-.9-.3-1.2,0L.3,15.4c-.3.3-.3.9,0,1.2l15,15c.3.3.9.3,1.2,0h-.1Z"/>
</symbol>
<symbol id="icon-arrow-up" viewBox="0 0 32 32">
  <path d="M.4,16.3l1.4,1.4c.3.3.9.3,1.2,0L14.1,6.6v24.5c0,.5.4.9.9.9h2c.5,0,.9-.4.9-.9V6.6s11.1,11.2,11.1,11.2c.3.3.9.3,1.2,0l1.4-1.4c.3-.3.3-.9,0-1.2L16.6.2c-.3-.3-.9-.3-1.2,0L.4,15.2c-.3.3-.3.9,0,1.2h0Z"/>
</symbol>
<symbol id="icon-angle-left" viewBox="0 0 20 32">
	<path d="M.8,15.2L15.5.4c.5-.5,1.2-.5,1.7,0l2,2c.5.5.5,1.2,0,1.7L7.3,16l11.8,12c.5.5.5,1.2,0,1.7l-2,2c-.5.5-1.2.5-1.7,0L.8,16.8c-.5-.5-.5-1.2,0-1.7Z"/>
</symbol>
<symbol id="icon-angle-right" viewBox="0 0 20 32">
	<path d="M19.2,16.8l-14.7,14.8c-.5.5-1.2.5-1.7,0l-2-2c-.5-.5-.5-1.2,0-1.7l11.8-12L.8,4c-.5-.5-.5-1.2,0-1.7L2.8.4c.5-.5,1.2-.5,1.7,0l14.7,14.8c.5.5.5,1.2,0,1.7Z"/>
</symbol>

<!-- Brands -->
<symbol id="icon-bluesky" viewBox="0 0 600 530">
	<path d="m135.72 44.03c66.496 49.921 138.02 151.14 164.28 205.46 26.262-54.316 97.782-155.54 164.28-205.46 47.98-36.021 125.72-63.892 125.72 24.795 0 17.712-10.155 148.79-16.111 170.07-20.703 73.984-96.144 92.854-163.25 81.433 117.3 19.964 147.14 86.092 82.697 152.22-122.39 125.59-175.91-31.511-189.63-71.766-2.514-7.3797-3.6904-10.832-3.7077-7.8964-0.0174-2.9357-1.1937 0.51669-3.7077 7.8964-13.714 40.255-67.233 197.36-189.63 71.766-64.444-66.128-34.605-132.26 82.697-152.22-67.108 11.421-142.55-7.4491-163.25-81.433-5.9562-21.282-16.111-152.36-16.111-170.07 0-88.687 77.742-60.816 125.72-24.795z"/>
</symbol>
<symbol id="icon-linkedin" viewBox="0 0 448 512">
	<path d="M100.3 480H7.4V180.9h92.9V480zM53.8 140.1C24.1 140.1 0 115.5 0 85.8 0 56.1 24.1 32 53.8 32c29.7 0 53.8 24.1 53.8 53.8 0 29.7-24.1 54.3-53.8 54.3zM448 480h-92.7V334.4c0-34.7-.7-79.2-48.3-79.2-48.3 0-55.7 37.7-55.7 76.7V480h-92.8V180.9h89.1v40.8h1.3c12.4-23.5 42.7-48.3 87.9-48.3 94 0 111.3 61.9 111.3 142.3V480z"/>
</symbol>
<symbol id="icon-twitter-x" viewBox="0 0 1200 1227">
  <path d="M714.163 519.284L1160.89 0H1055.03L667.137 450.887L357.328 0H0L468.492 681.821L0 1226.37H105.866L515.491 750.218L842.672 1226.37H1200L714.137 519.284H714.163ZM569.165 687.828L521.697 619.934L144.011 79.6944H306.615L611.412 515.685L658.88 583.579L1055.08 1150.3H892.476L569.165 687.854V687.828Z"/>
</symbol>
<symbol id="icon-facebook" viewBox="0 0 264 512">
	<path d="M76.7 512V283H0v-91h76.7v-71.7C76.7 42.4 124.3 0 193.8 0c33.3 0 61.9 2.5 70.2 3.6V85h-48.2c-37.8 0-45.1 18-45.1 44.3V192H256l-11.7 91h-73.6v229"/>
</symbol>
<symbol id="icon-google" viewBox="0 0 448 512">
	<path d="M488 261.8C488 403.3 391.1 504 248 504 110.8 504 0 393.2 0 256S110.8 8 248 8c66.8 0 123 24.5 166.3 64.9l-67.5 64.9C258.5 52.6 94.3 116.6 94.3 256c0 86.5 69.1 156.6 153.7 156.6 98.2 0 135-70.4 140.8-106.9H248v-85.3h236.1c2.3 12.7 3.9 24.9 3.9 41.4z"/>
</symbol>
<symbol id="icon-vimeo" viewBox="0 0 448 512">
	<path d="M447.8 153.6c-2 43.6-32.4 103.3-91.4 179.1-60.9 79.2-112.4 118.8-154.6 118.8-26.1 0-48.2-24.1-66.3-72.3C100.3 250 85.3 174.3 56.2 174.3c-3.4 0-15.1 7.1-35.2 21.1L0 168.2c51.6-45.3 100.9-95.7 131.8-98.5 34.9-3.4 56.3 20.5 64.4 71.5 28.7 181.5 41.4 208.9 93.6 126.7 18.7-29.6 28.8-52.1 30.2-67.6 4.8-45.9-35.8-42.8-63.3-31 22-72.1 64.1-107.1 126.2-105.1 45.8 1.2 67.5 31.1 64.9 89.4z"/>
</symbol>
<symbol id="icon-youtube" viewBox="0 0 576 512">
	<path d="M549.655 124.083c-6.281-23.65-24.787-42.276-48.284-48.597C458.781 64 288 64 288 64S117.22 64 74.629 75.486c-23.497 6.322-42.003 24.947-48.284 48.597-11.412 42.867-11.412 132.305-11.412 132.305s0 89.438 11.412 132.305c6.281 23.65 24.787 41.5 48.284 47.821C117.22 448 288 448 288 448s170.78 0 213.371-11.486c23.497-6.321 42.003-24.171 48.284-47.821 11.412-42.867 11.412-132.305 11.412-132.305s0-89.438-11.412-132.305zm-317.51 213.508V175.185l142.739 81.205-142.739 81.201z"/>
</symbol>
<symbol id="icon-instagram" viewBox="0 0 448 512">
	<path d="M224.1 141c-63.6 0-114.9 51.3-114.9 114.9s51.3 114.9 114.9 114.9S339 319.5 339 255.9 287.7 141 224.1 141zm0 189.6c-41.1 0-74.7-33.5-74.7-74.7s33.5-74.7 74.7-74.7 74.7 33.5 74.7 74.7-33.6 74.7-74.7 74.7zm146.4-194.3c0 14.9-12 26.8-26.8 26.8-14.9 0-26.8-12-26.8-26.8s12-26.8 26.8-26.8 26.8 12 26.8 26.8zm76.1 27.2c-1.7-35.9-9.9-67.7-36.2-93.9-26.2-26.2-58-34.4-93.9-36.2-37-2.1-147.9-2.1-184.9 0-35.8 1.7-67.6 9.9-93.9 36.1s-34.4 58-36.2 93.9c-2.1 37-2.1 147.9 0 184.9 1.7 35.9 9.9 67.7 36.2 93.9s58 34.4 93.9 36.2c37 2.1 147.9 2.1 184.9 0 35.9-1.7 67.7-9.9 93.9-36.2 26.2-26.2 34.4-58 36.2-93.9 2.1-37 2.1-147.8 0-184.8zM398.8 388c-7.8 19.6-22.9 34.7-42.6 42.6-29.5 11.7-99.5 9-132.1 9s-102.7 2.6-132.1-9c-19.6-7.8-34.7-22.9-42.6-42.6-11.7-29.5-9-99.5-9-132.1s-2.6-102.7 9-132.1c7.8-19.6 22.9-34.7 42.6-42.6 29.5-11.7 99.5-9 132.1-9s102.7-2.6 132.1 9c19.6 7.8 34.7 22.9 42.6 42.6 11.7 29.5 9 99.5 9 132.1s2.7 102.7-9 132.1z"/>
</symbol>
<symbol id="icon-snapchat" viewBox="0 0 32 30">
	<path d="M31.7,23.4c-.4.7-1.7,1.3-4.2,1.7,0,.1-.1.4-.2.7l-.2.7c-.1.4-.4.6-.7.6s-.4,0-.8-.1c-.6-.1-1.2-.2-1.6-.2-.8,0-1.4.1-1.9.3-.4.2-.9.5-1.6,1-.9.6-1.5,1-2,1.2-.8.4-1.7.5-2.5.4-.9.1-1.7,0-2.5-.5-.6-.2-1.2-.6-1.8-1.1h0c-.7-.6-1.3-.9-1.6-1-.5-.2-1.2-.3-1.9-.3s-1,.1-1.7.2c-.4,0-.6,0-.7,0-.4,0-.6-.2-.7-.6l-.2-.7c-.1-.4-.2-.7-.2-.8-2.8-.4-4.2-1-4.2-2s0-.3.1-.4c.1-.1.2-.2.4-.2,1.8-.2,3.4-1.2,4.7-2.8.7-.8,1.2-1.6,1.5-2.5h0c.2-.5.3-.9.2-1.2-.1-.2-.4-.5-.7-.7-.2-.1-.6-.2-1-.4h-.4c-1.2-.6-1.7-1.2-1.6-1.8,0-.4.3-.6.8-.9.5-.2.9-.2,1.2,0,.6.2,1,.4,1.5.4s.4,0,.6-.1v-.7c-.2-1.5-.2-2.6-.2-3.4,0-1.2.2-2.2.5-3,.9-2,2.3-3.4,4.2-4.2,1.1-.5,2.3-.8,3.6-.8h.6c1.7,0,3.2.4,4.6,1.3,1.4.9,2.5,2.2,3.3,3.8.2.7.4,1.7.5,3,0,.8,0,1.9-.1,3.4v.8c0,.1.2.1.5.1.4,0,.9-.1,1.4-.4.4-.2.8-.2,1.3,0,.6.2.9.6.9,1.1s-.6,1.1-1.6,1.5h-.4c-1,.5-1.7.9-1.8,1.2-.1.3,0,.7.2,1.1h0c.3.9.8,1.7,1.5,2.5,1.4,1.6,2.9,2.6,4.7,2.8.2,0,.3.2.4.4.1.2.1.4,0,.6Z"/>
</symbol>

<!-- Alerts -->
<symbol id="icon-exclamation" viewBox="0 0 576 512">
	<path d="M569.517 440.013C587.975 472.007 564.806 512 527.94 512H48.054c-36.937 0-59.999-40.055-41.577-71.987L246.423 23.985c18.467-32.009 64.72-31.951 83.154 0l239.94 416.028zM288 354c-25.405 0-46 20.595-46 46s20.595 46 46 46 46-20.595 46-46-20.595-46-46-46zm-43.673-165.346l7.418 136c.347 6.364 5.609 11.346 11.982 11.346h48.546c6.373 0 11.635-4.982 11.982-11.346l7.418-136c.375-6.874-5.098-12.654-11.982-12.654h-63.383c-6.884 0-12.356 5.78-11.981 12.654z"/>
</symbol>
<symbol id="icon-success" viewBox="0 0 512 512">
	<path d="M504 256c0 136.967-111.033 248-248 248S8 392.967 8 256 119.033 8 256 8s248 111.033 248 248zM227.314 387.314l184-184c6.248-6.248 6.248-16.379 0-22.627l-22.627-22.627c-6.248-6.249-16.379-6.249-22.628 0L216 308.118l-70.059-70.059c-6.248-6.248-16.379-6.248-22.628 0l-22.627 22.627c-6.248 6.248-6.248 16.379 0 22.627l104 104c6.249 6.249 16.379 6.249 22.628.001z"/>
</symbol>
<symbol id="icon-info" viewBox="0 0 512 512">
	<path d="M256 8C119.043 8 8 119.083 8 256c0 136.997 111.043 248 248 248s248-111.003 248-248C504 119.083 392.957 8 256 8zm0 110c23.196 0 42 18.804 42 42s-18.804 42-42 42-42-18.804-42-42 18.804-42 42-42zm56 254c0 6.627-5.373 12-12 12h-88c-6.627 0-12-5.373-12-12v-24c0-6.627 5.373-12 12-12h12v-64h-12c-6.627 0-12-5.373-12-12v-24c0-6.627 5.373-12 12-12h64c6.627 0 12 5.373 12 12v100h12c6.627 0 12 5.373 12 12v24z"/>
</symbol>
<symbol id="icon-question" viewBox="0 0 512 512">
	<path d="M504 256c0 136.997-111.043 248-248 248S8 392.997 8 256C8 119.083 119.043 8 256 8s248 111.083 248 248zM262.655 90c-54.497 0-89.255 22.957-116.549 63.758-3.536 5.286-2.353 12.415 2.715 16.258l34.699 26.31c5.205 3.947 12.621 3.008 16.665-2.122 17.864-22.658 30.113-35.797 57.303-35.797 20.429 0 45.698 13.148 45.698 32.958 0 14.976-12.363 22.667-32.534 33.976C247.128 238.528 216 254.941 216 296v4c0 6.627 5.373 12 12 12h56c6.627 0 12-5.373 12-12v-1.333c0-28.462 83.186-29.647 83.186-106.667 0-58.002-60.165-102-116.531-102zM256 338c-25.365 0-46 20.635-46 46 0 25.364 20.635 46 46 46s46-20.636 46-46c0-25.365-20.635-46-46-46z"/>
</symbol>
<symbol id="icon-flag" viewBox="0 0 512 512">
  <path d="M349.565 98.783C295.978 98.783 251.721 64 184.348 64c-24.955 0-47.309 4.384-68.045 12.013a55.947 55.947 0 0 0 3.586-23.562C118.117 24.015 94.806 1.206 66.338.048 34.345-1.254 8 24.296 8 56c0 19.026 9.497 35.825 24 45.945V488c0 13.255 10.745 24 24 24h16c13.255 0 24-10.745 24-24v-94.4c28.311-12.064 63.582-22.122 114.435-22.122 53.588 0 97.844 34.783 165.217 34.783 48.169 0 86.667-16.294 122.505-40.858C506.84 359.452 512 349.571 512 339.045v-243.1c0-23.393-24.269-38.87-45.485-29.016-34.338 15.948-76.454 31.854-116.95 31.854z"/>
</symbol>
<symbol id="icon-prohibited" viewBox="0 0 512 512">
  <path d="M504 256c0 136.997-111.043 248-248 248S8 392.997 8 256C8 119.083 119.043 8 256 8s248 111.083 248 248zm-248 50c-25.405 0-46 20.595-46 46s20.595 46 46 46 46-20.595 46-46-20.595-46-46-46zm-43.673-165.346l7.418 136c.347 6.364 5.609 11.346 11.982 11.346h48.546c6.373 0 11.635-4.982 11.982-11.346l7.418-136c.375-6.874-5.098-12.654-11.982-12.654h-63.383c-6.884 0-12.356 5.78-11.981 12.654z"/>
</symbol>
</defs>
</svg>