<svg aria-hidden="true" style="position: absolute; width: 0; height: 0;" width="0" height="0" version="1.1" xmlns="http://www.w3.org/2000/svg">
<defs>
<!-- Interface -->
<symbol id="icon-hamburger" viewBox="0 0 448 512">
	<path d="M436 124H12c-6.627 0-12-5.373-12-12V80c0-6.627 5.373-12 12-12h424c6.627 0 12 5.373 12 12v32c0 6.627-5.373 12-12 12zm0 160H12c-6.627 0-12-5.373-12-12v-32c0-6.627 5.373-12 12-12h424c6.627 0 12 5.373 12 12v32c0 6.627-5.373 12-12 12zm0 160H12c-6.627 0-12-5.373-12-12v-32c0-6.627 5.373-12 12-12h424c6.627 0 12 5.373 12 12v32c0 6.627-5.373 12-12 12z"/>
</symbol>
<symbol id="icon-search" viewBox="0 0 512 512">
	<path d="M508.5 468.9L387.1 347.5c-2.3-2.3-5.3-3.5-8.5-3.5h-13.2c31.5-36.5 50.6-84 50.6-136C416 93.1 322.9 0 208 0S0 93.1 0 208s93.1 208 208 208c52 0 99.5-19.1 136-50.6v13.2c0 3.2 1.3 6.2 3.5 8.5l121.4 121.4c4.7 4.7 12.3 4.7 17 0l22.6-22.6c4.7-4.7 4.7-12.3 0-17zM208 368c-88.4 0-160-71.6-160-160S119.6 48 208 48s160 71.6 160 160-71.6 160-160 160z"/>
</symbol>
<symbol id="icon-search" viewBox="0 0 512 512">
	<path d="M508.5 468.9L387.1 347.5c-2.3-2.3-5.3-3.5-8.5-3.5h-13.2c31.5-36.5 50.6-84 50.6-136C416 93.1 322.9 0 208 0S0 93.1 0 208s93.1 208 208 208c52 0 99.5-19.1 136-50.6v13.2c0 3.2 1.3 6.2 3.5 8.5l121.4 121.4c4.7 4.7 12.3 4.7 17 0l22.6-22.6c4.7-4.7 4.7-12.3 0-17zM208 368c-88.4 0-160-71.6-160-160S119.6 48 208 48s160 71.6 160 160-71.6 160-160 160z"/>
</symbol>
<symbol id="icon-search-menu" viewBox="0 0 777 512">
	<path d="M773.8,468.9c4.3,4,3.8,13.5,0,17-8.4,5.5-29.2,37.1-40,22l-121.9-120.8c-4.9-4.3-2.4-16.4-3-22-93,85.1-255.7,59.3-315.4-52C188.1,129.8,392.9-76.8,577.2,28.6c111.4,61.5,138,221.4,52.9,315.4,5.6.6,17.8-1.8,22,3l121.9,121.9h-.2ZM473.4,368c119.3,3.5,201-137.2,137.8-239.6-60.2-105.9-216.8-104.7-276.5,0-61.1,104.4,17,242.2,138.7,239.6h0Z"/>
  <path d="M206.2,370.2H29c-16,0-28.9,11.5-28.9,25.5s12.9,25.5,28.9,25.5h177.2c16,0,28.9-11.5,28.9-25.5s-12.9-25.5-28.9-25.5h0Z"/>
  <path d="M29,64h177.2c16,0,28.9-11.4,28.9-25.5s-12.9-25.5-28.9-25.5H29C13.1,13,.2,24.4.2,38.5s12.9,25.5,28.9,25.5Z"/>
  <path d="M29,242.7h101.3c16,0,28.9-11.4,28.9-25.5s-12.9-25.5-28.9-25.5H29c-16,0-28.9,11.5-28.9,25.5s12.9,25.5,28.9,25.5h0Z"/>
</symbol>
<symbol id="icon-close" viewBox="0 0 384 512">
	<path d="M231.6 256l130.1-130.1c4.7-4.7 4.7-12.3 0-17l-22.6-22.6c-4.7-4.7-12.3-4.7-17 0L192 216.4 61.9 86.3c-4.7-4.7-12.3-4.7-17 0l-22.6 22.6c-4.7 4.7-4.7 12.3 0 17L152.4 256 22.3 386.1c-4.7 4.7-4.7 12.3 0 17l22.6 22.6c4.7 4.7 12.3 4.7 17 0L192 295.6l130.1 130.1c4.7 4.7 12.3 4.7 17 0l22.6-22.6c4.7-4.7 4.7-12.3 0-17L231.6 256z"/>
</symbol>
<symbol id="icon-refresh" viewBox="0 0 512 512">
	<path d="M12 8h27.711c6.739 0 12.157 5.548 11.997 12.286l-2.347 98.568C93.925 51.834 170.212 7.73 256.793 8.001 393.18 8.428 504.213 120.009 504 256.396 503.786 393.181 392.835 504 256 504c-63.926 0-122.202-24.187-166.178-63.908-5.113-4.618-5.354-12.561-.482-17.433l19.738-19.738c4.498-4.498 11.753-4.785 16.501-.552C160.213 433.246 205.895 452 256 452c108.322 0 196-87.662 196-196 0-108.322-87.662-196-196-196-79.545 0-147.941 47.282-178.675 115.302l126.389-3.009c6.737-.16 12.286 5.257 12.286 11.997V212c0 6.627-5.373 12-12 12H12c-6.627 0-12-5.373-12-12V20C0 13.373 5.373 8 12 8z"/>
</symbol>
<symbol id="icon-check" viewBox="0 0 512 512">
	<path d="M435.848 83.466L172.804 346.51l-96.652-96.652c-4.686-4.686-12.284-4.686-16.971 0l-28.284 28.284c-4.686 4.686-4.686 12.284 0 16.971l133.421 133.421c4.686 4.686 12.284 4.686 16.971 0l299.813-299.813c4.686-4.686 4.686-12.284 0-16.971l-28.284-28.284c-4.686-4.686-12.284-4.686-16.97 0z"/>
</symbol>
<symbol id="icon-map-pin" viewBox="0 0 384 512">
	<path d="M172.268 501.67C26.97 291.031 0 269.413 0 192 0 85.961 85.961 0 192 0s192 85.961 192 192c0 77.413-26.97 99.031-172.268 309.67-9.535 13.774-29.93 13.773-39.464 0zM192 272c44.183 0 80-35.817 80-80s-35.817-80-80-80-80 35.817-80 80 35.817 80 80 80z"/>
</symbol>
<symbol id="icon-plus" viewBox="0 0 448 512">
	<path d="M436 228H252V44c0-6.6-5.4-12-12-12h-32c-6.6 0-12 5.4-12 12v184H12c-6.6 0-12 5.4-12 12v32c0 6.6 5.4 12 12 12h184v184c0 6.6 5.4 12 12 12h32c6.6 0 12-5.4 12-12V284h184c6.6 0 12-5.4 12-12v-32c0-6.6-5.4-12-12-12z"/>
</symbol>
<symbol id="icon-minus" viewBox="0 0 448 512">
	<path d="M436 284c6.6 0 12-5.4 12-12v-32c0-6.6-5.4-12-12-12H12c-6.6 0-12 5.4-12 12v32c0 6.6 5.4 12 12 12h424z"/>
</symbol>
<symbol id="icon-user" viewBox="0 0 512 512">
	<path d="M423.309 291.025L402.221 285C431.798 243.89 436 202.294 436 180 436 80.649 355.484 0 256 0 156.649 0 76 80.516 76 180c0 22.299 4.198 63.884 33.779 105l-21.088 6.025C21.28 310.285 0 371.59 0 408.605v25.681C0 477.138 34.862 512 77.714 512h356.571C477.138 512 512 477.138 512 434.286v-25.681c0-36.247-20.725-98.161-88.691-117.58zM256 48c72.902 0 132 59.099 132 132s-59.098 132-132 132-132-59.099-132-132S183.098 48 256 48zm208 386.286c0 16.41-13.304 29.714-29.714 29.714H77.714C61.304 464 48 450.696 48 434.286v-25.681c0-33.167 21.987-62.316 53.878-71.427l46.103-13.172C162.683 335.058 200.427 360 256 360s93.317-24.942 108.019-35.994l46.103 13.172C442.013 346.29 464 375.438 464 408.605v25.681z"/>
</symbol>
<symbol id="icon-calendar" viewBox="0 0 448 512">
	<path d="M148 288h-40c-6.6 0-12-5.4-12-12v-40c0-6.6 5.4-12 12-12h40c6.6 0 12 5.4 12 12v40c0 6.6-5.4 12-12 12zm108-12v-40c0-6.6-5.4-12-12-12h-40c-6.6 0-12 5.4-12 12v40c0 6.6 5.4 12 12 12h40c6.6 0 12-5.4 12-12zm96 0v-40c0-6.6-5.4-12-12-12h-40c-6.6 0-12 5.4-12 12v40c0 6.6 5.4 12 12 12h40c6.6 0 12-5.4 12-12zm-96 96v-40c0-6.6-5.4-12-12-12h-40c-6.6 0-12 5.4-12 12v40c0 6.6 5.4 12 12 12h40c6.6 0 12-5.4 12-12zm-96 0v-40c0-6.6-5.4-12-12-12h-40c-6.6 0-12 5.4-12 12v40c0 6.6 5.4 12 12 12h40c6.6 0 12-5.4 12-12zm192 0v-40c0-6.6-5.4-12-12-12h-40c-6.6 0-12 5.4-12 12v40c0 6.6 5.4 12 12 12h40c6.6 0 12-5.4 12-12zm96-260v352c0 26.5-21.5 48-48 48H48c-26.5 0-48-21.5-48-48V112c0-26.5 21.5-48 48-48h48V12c0-6.6 5.4-12 12-12h40c6.6 0 12 5.4 12 12v52h128V12c0-6.6 5.4-12 12-12h40c6.6 0 12 5.4 12 12v52h48c26.5 0 48 21.5 48 48zm-48 346V160H48v298c0 3.3 2.7 6 6 6h340c3.3 0 6-2.7 6-6z"/>
</symbol>
<symbol id="icon-calendar-add" viewBox="0 0 448 512">
	<path d="M336 292v24c0 6.6-5.4 12-12 12h-76v76c0 6.6-5.4 12-12 12h-24c-6.6 0-12-5.4-12-12v-76h-76c-6.6 0-12-5.4-12-12v-24c0-6.6 5.4-12 12-12h76v-76c0-6.6 5.4-12 12-12h24c6.6 0 12 5.4 12 12v76h76c6.6 0 12 5.4 12 12zm112-180v352c0 26.5-21.5 48-48 48H48c-26.5 0-48-21.5-48-48V112c0-26.5 21.5-48 48-48h48V12c0-6.6 5.4-12 12-12h40c6.6 0 12 5.4 12 12v52h128V12c0-6.6 5.4-12 12-12h40c6.6 0 12 5.4 12 12v52h48c26.5 0 48 21.5 48 48zm-48 346V160H48v298c0 3.3 2.7 6 6 6h340c3.3 0 6-2.7 6-6z"/>
</symbol>
<symbol id="icon-envelope-o" viewBox="0 0 512 512">
	<path d="M464 64H48C21.49 64 0 85.49 0 112v288c0 26.51 21.49 48 48 48h416c26.51 0 48-21.49 48-48V112c0-26.51-21.49-48-48-48zm0 48v40.805c-22.422 18.259-58.168 46.651-134.587 106.49-16.841 13.247-50.201 45.072-73.413 44.701-23.208.375-56.579-31.459-73.413-44.701C106.18 199.465 70.425 171.067 48 152.805V112h416zM48 400V214.398c22.914 18.251 55.409 43.862 104.938 82.646 21.857 17.205 60.134 55.186 103.062 54.955 42.717.231 80.509-37.199 103.053-54.947 49.528-38.783 82.032-64.401 104.947-82.653V400H48z"/>
</symbol>
<symbol id="icon-download" viewBox="0 0 576 512">
	<path d="M528 288h-92.1l46.1-46.1c30.1-30.1 8.8-81.9-33.9-81.9h-64V48c0-26.5-21.5-48-48-48h-96c-26.5 0-48 21.5-48 48v112h-64c-42.6 0-64.2 51.7-33.9 81.9l46.1 46.1H48c-26.5 0-48 21.5-48 48v128c0 26.5 21.5 48 48 48h480c26.5 0 48-21.5 48-48V336c0-26.5-21.5-48-48-48zm-400-80h112V48h96v160h112L288 368 128 208zm400 256H48V336h140.1l65.9 65.9c18.8 18.8 49.1 18.7 67.9 0l65.9-65.9H528v128zm-88-64c0-13.3 10.7-24 24-24s24 10.7 24 24-10.7 24-24 24-24-10.7-24-24z"/>
</symbol>
<symbol id="icon-home" viewBox="0 0 576 512">
	<path d="M488 312.7V456c0 13.3-10.7 24-24 24H348c-6.6 0-12-5.4-12-12V356c0-6.6-5.4-12-12-12h-72c-6.6 0-12 5.4-12 12v112c0 6.6-5.4 12-12 12H112c-13.3 0-24-10.7-24-24V312.7c0-3.6 1.6-7 4.4-9.3l188-154.8c4.4-3.6 10.8-3.6 15.3 0l188 154.8c2.7 2.3 4.3 5.7 4.3 9.3zm83.6-60.9L488 182.9V44.4c0-6.6-5.4-12-12-12h-56c-6.6 0-12 5.4-12 12V117l-89.5-73.7c-17.7-14.6-43.3-14.6-61 0L4.4 251.8c-5.1 4.2-5.8 11.8-1.6 16.9l25.5 31c4.2 5.1 11.8 5.8 16.9 1.6l235.2-193.7c4.4-3.6 10.8-3.6 15.3 0l235.2 193.7c5.1 4.2 12.7 3.5 16.9-1.6l25.5-31c4.2-5.2 3.4-12.7-1.7-16.9z"/>
</symbol>
<symbol id="icon-clock-o" viewBox="0 0 512 512">
	<path d="M256 8C119 8 8 119 8 256s111 248 248 248 248-111 248-248S393 8 256 8zm0 448c-110.5 0-200-89.5-200-200S145.5 56 256 56s200 89.5 200 200-89.5 200-200 200zm61.8-104.4l-84.9-61.7c-3.1-2.3-4.9-5.9-4.9-9.7V116c0-6.6 5.4-12 12-12h32c6.6 0 12 5.4 12 12v141.7l66.8 48.6c5.4 3.9 6.5 11.4 2.6 16.8L334.6 349c-3.9 5.3-11.4 6.5-16.8 2.6z"/>
</symbol>
<symbol id="icon-history" viewBox="0 0 512 512">
	<path d="M504 255.532c.252 136.64-111.182 248.372-247.822 248.468-64.014.045-122.373-24.163-166.394-63.942-5.097-4.606-5.3-12.543-.443-17.4l16.96-16.96c4.529-4.529 11.776-4.659 16.555-.395C158.208 436.843 204.848 456 256 456c110.549 0 200-89.468 200-200 0-110.549-89.468-200-200-200-55.52 0-105.708 22.574-141.923 59.043l49.091 48.413c7.641 7.535 2.305 20.544-8.426 20.544H26.412c-6.627 0-12-5.373-12-12V45.443c0-10.651 12.843-16.023 20.426-8.544l45.097 44.474C124.866 36.067 187.15 8 256 8c136.811 0 247.747 110.781 248 247.532zm-167.058 90.173l14.116-19.409c3.898-5.36 2.713-12.865-2.647-16.763L280 259.778V116c0-6.627-5.373-12-12-12h-24c-6.627 0-12 5.373-12 12v168.222l88.179 64.13c5.36 3.897 12.865 2.712 16.763-2.647z"/>
</symbol>
<symbol id="icon-external-link" viewBox="0 0 576 512">
	<path d="M576 24v127.984c0 21.461-25.96 31.98-40.971 16.971l-35.707-35.709-243.523 243.523c-9.373 9.373-24.568 9.373-33.941 0l-22.627-22.627c-9.373-9.373-9.373-24.569 0-33.941L442.756 76.676l-35.703-35.705C391.982 25.9 402.656 0 424.024 0H552c13.255 0 24 10.745 24 24zM407.029 270.794l-16 16A23.999 23.999 0 0 0 384 303.765V448H64V128h264a24.003 24.003 0 0 0 16.97-7.029l16-16C376.089 89.851 365.381 64 344 64H48C21.49 64 0 85.49 0 112v352c0 26.51 21.49 48 48 48h352c26.51 0 48-21.49 48-48V287.764c0-21.382-25.852-32.09-40.971-16.97z"/>
</symbol>
<symbol id="icon-lock" viewBox="0 0 448 512">
	<path d="M400 224h-24v-72C376 68.2 307.8 0 224 0S72 68.2 72 152v72H48c-26.5 0-48 21.5-48 48v192c0 26.5 21.5 48 48 48h352c26.5 0 48-21.5 48-48V272c0-26.5-21.5-48-48-48zM264 392c0 22.1-17.9 40-40 40s-40-17.9-40-40v-48c0-22.1 17.9-40 40-40s40 17.9 40 40v48zm32-168H152v-72c0-39.7 32.3-72 72-72s72 32.3 72 72v72z"/>
</symbol>
<symbol id="icon-play" viewBox="0 0 448 512">
	<path d="M424.4 214.7L72.4 6.6C43.8-10.3 0 6.1 0 47.9V464c0 37.5 40.7 60.1 72.4 41.3l352-208c31.4-18.5 31.5-64.1 0-82.6z"/>
</symbol>
<symbol id="icon-feed" viewBox="0 0 448 512">
	<path d="M128.081 415.959c0 35.369-28.672 64.041-64.041 64.041S0 451.328 0 415.959s28.672-64.041 64.041-64.041 64.04 28.673 64.04 64.041zm175.66 47.25c-8.354-154.6-132.185-278.587-286.95-286.95C7.656 175.765 0 183.105 0 192.253v48.069c0 8.415 6.49 15.472 14.887 16.018 111.832 7.284 201.473 96.702 208.772 208.772.547 8.397 7.604 14.887 16.018 14.887h48.069c9.149.001 16.489-7.655 15.995-16.79zm144.249.288C439.596 229.677 251.465 40.445 16.503 32.01 7.473 31.686 0 38.981 0 48.016v48.068c0 8.625 6.835 15.645 15.453 15.999 191.179 7.839 344.627 161.316 352.465 352.465.353 8.618 7.373 15.453 15.999 15.453h48.068c9.034-.001 16.329-7.474 16.005-16.504z"/>
</symbol>
<symbol id="icon-mode" viewBox="0 0 512 512">
  <path d="M512,256C512,114.6,397.4,0,256,0S0,114.6,0,256s114.6,256,256,256,32.8-1.6,48.5-4.6c21.4,0,14.5,0,.2,0,118.1-22.8,207.2-126.6,207.2-251.3ZM483.4,256c0,121.4-95.6,220.6-215.5,226.8V29.2c119.8,6.3,215.5,105.5,215.5,226.8Z"/>
</symbol>

<!-- Arrows -->
<symbol id="icon-box-arrow-up" viewBox="0 0 365 512">
  <path d="M314.3,176.9h-61.5c-6.9,0-12.6,5.6-12.6,12.6v17.1c0,6.9,5.6,12.6,12.6,12.6h61.5c4.5,0,8.1,3.7,8.1,8.1v234.3c0,4.5-3.7,8.1-8.1,8.1H50.7c-4.5,0-8.1-3.7-8.1-8.1v-234.3c0-4.5,3.7-8.1,8.1-8.1h62c6.9,0,12.6-5.6,12.6-12.6v-17.1c0-6.9-5.6-12.6-12.6-12.6h-62C22.9,176.9.3,199.5.3,227.3v234.3c0,27.8,22.6,50.4,50.4,50.4h263.6c27.8,0,50.4-22.6,50.4-50.4v-234.3c0-27.8-22.6-50.4-50.4-50.4Z"/>
  <path d="M63.7,133.8l11.5,11.5c2.1,2.1,4.5,3,7.7,3s6.8-1.6,8.2-3l76.6-76.6v232c0,3.7,2.5,6.6,3.5,7.7,1.1,1.1,3.9,3.5,7.7,3.5h15.3c3,0,5.9-1.3,8.2-3.5h0c1.9-2,2.9-4.8,2.9-7.7V68.7l76.6,76.6.3.3.4.2c1.9,1.3,3.9,2.4,7.5,2.4s5.6-.9,7.7-3l11.2-11.2.3-.4c1.3-1.9,2.4-3.9,2.4-7.5s-.9-5.6-3-7.7L194.4,4.7c-1.9-2.4-4.7-3.8-7.9-3.8s-5,.8-7.5,2.4l-.4.3-114.4,114.9c-1.9,1.9-3,4.7-3,7.7s.6,4.6,2,6.9l.4.7Z"/>
</symbol>
<symbol id="icon-arrow-right" viewBox="0 0 448 512">
  <path d="M218.101 38.101L198.302 57.9c-4.686 4.686-4.686 12.284 0 16.971L353.432 230H12c-6.627 0-12 5.373-12 12v28c0 6.627 5.373 12 12 12h341.432l-155.13 155.13c-4.686 4.686-4.686 12.284 0 16.971l19.799 19.799c4.686 4.686 12.284 4.686 16.971 0l209.414-209.414c4.686-4.686 4.686-12.284 0-16.971L235.071 38.101c-4.686-4.687-12.284-4.687-16.97 0z"/>
</symbol>
<symbol id="icon-arrow-down" viewBox="0 0 448 512">
  <path d="M441.9,250.1l-19.8-19.8c-4.7-4.7-12.3-4.7-17,0l-155.1,155.1V44c0-6.6-5.4-12-12-12h-28c-6.6,0-12,5.4-12,12v341.4L42.9,230.3c-4.7-4.7-12.3-4.7-17,0l-19.8,19.8c-4.7,4.7-4.7,12.3,0,17l209.4,209.4c4.7,4.7,12.3,4.7,17,0l209.4-209.4c4.7-4.7,4.7-12.3,0-17Z"/>
</symbol>
<symbol id="icon-arrow-left" viewBox="0 0 448 512">
  <path d="M218.101 38.101L198.302 57.9c-4.686 4.686-4.686 12.284 0 16.971L353.432 230H12c-6.627 0-12 5.373-12 12v28c0 6.627 5.373 12 12 12h341.432l-155.13 155.13c-4.686 4.686-4.686 12.284 0 16.971l19.799 19.799c4.686 4.686 12.284 4.686 16.971 0l209.414-209.414c4.686-4.686 4.686-12.284 0-16.971L235.071 38.101c-4.686-4.687-12.284-4.687-16.97 0z"/>
</symbol>
<symbol id="icon-arrow-up" viewBox="0 0 448 512">
  <path d="M6.101 261.899L25.9 281.698c4.686 4.686 12.284 4.686 16.971 0L198 126.568V468c0 6.627 5.373 12 12 12h28c6.627 0 12-5.373 12-12V126.568l155.13 155.13c4.686 4.686 12.284 4.686 16.971 0l19.799-19.799c4.686-4.686 4.686-12.284 0-16.971L232.485 35.515c-4.686-4.686-12.284-4.686-16.971 0L6.101 244.929c-4.687 4.686-4.687 12.284 0 16.97z"/>
</symbol>
<symbol id="icon-angle-left" viewBox="0 0 192 512">
	<path d="M4.2,247.5L151,99.5c4.7-4.7,12.3-4.7,17,0l19.8,19.8c4.7,4.7,4.7,12.3,0,17l-118.5,119.7,118.5,119.7c4.7,4.7,4.7,12.3,0,17l-19.8,19.8c-4.7,4.7-12.3,4.7-17,0L4.2,264.5c-4.7-4.7-4.7-12.3,0-17Z"/>
</symbol>
<symbol id="icon-angle-right" viewBox="0 0 192 512">
	<path d="M187.8 264.5L41 412.5c-4.7 4.7-12.3 4.7-17 0L4.2 392.7c-4.7-4.7-4.7-12.3 0-17L122.7 256 4.2 136.3c-4.7-4.7-4.7-12.3 0-17L24 99.5c4.7-4.7 12.3-4.7 17 0l146.8 148c4.7 4.7 4.7 12.3 0 17z"/>
</symbol>

<!-- Brands -->
<symbol id="icon-bluesky" viewBox="0 0 600 530">
	<path d="m135.72 44.03c66.496 49.921 138.02 151.14 164.28 205.46 26.262-54.316 97.782-155.54 164.28-205.46 47.98-36.021 125.72-63.892 125.72 24.795 0 17.712-10.155 148.79-16.111 170.07-20.703 73.984-96.144 92.854-163.25 81.433 117.3 19.964 147.14 86.092 82.697 152.22-122.39 125.59-175.91-31.511-189.63-71.766-2.514-7.3797-3.6904-10.832-3.7077-7.8964-0.0174-2.9357-1.1937 0.51669-3.7077 7.8964-13.714 40.255-67.233 197.36-189.63 71.766-64.444-66.128-34.605-132.26 82.697-152.22-67.108 11.421-142.55-7.4491-163.25-81.433-5.9562-21.282-16.111-152.36-16.111-170.07 0-88.687 77.742-60.816 125.72-24.795z"/>
</symbol>
<symbol id="icon-linkedin" viewBox="0 0 448 512">
	<path d="M100.3 480H7.4V180.9h92.9V480zM53.8 140.1C24.1 140.1 0 115.5 0 85.8 0 56.1 24.1 32 53.8 32c29.7 0 53.8 24.1 53.8 53.8 0 29.7-24.1 54.3-53.8 54.3zM448 480h-92.7V334.4c0-34.7-.7-79.2-48.3-79.2-48.3 0-55.7 37.7-55.7 76.7V480h-92.8V180.9h89.1v40.8h1.3c12.4-23.5 42.7-48.3 87.9-48.3 94 0 111.3 61.9 111.3 142.3V480z"/>
</symbol>
<symbol id="icon-twitter-x" viewBox="0 0 1200 1227">
  <path d="M714.163 519.284L1160.89 0H1055.03L667.137 450.887L357.328 0H0L468.492 681.821L0 1226.37H105.866L515.491 750.218L842.672 1226.37H1200L714.137 519.284H714.163ZM569.165 687.828L521.697 619.934L144.011 79.6944H306.615L611.412 515.685L658.88 583.579L1055.08 1150.3H892.476L569.165 687.854V687.828Z"/>
</symbol>
<symbol id="icon-facebook" viewBox="0 0 264 512">
	<path d="M76.7 512V283H0v-91h76.7v-71.7C76.7 42.4 124.3 0 193.8 0c33.3 0 61.9 2.5 70.2 3.6V85h-48.2c-37.8 0-45.1 18-45.1 44.3V192H256l-11.7 91h-73.6v229"/>
</symbol>
<symbol id="icon-google" viewBox="0 0 448 512">
	<path d="M488 261.8C488 403.3 391.1 504 248 504 110.8 504 0 393.2 0 256S110.8 8 248 8c66.8 0 123 24.5 166.3 64.9l-67.5 64.9C258.5 52.6 94.3 116.6 94.3 256c0 86.5 69.1 156.6 153.7 156.6 98.2 0 135-70.4 140.8-106.9H248v-85.3h236.1c2.3 12.7 3.9 24.9 3.9 41.4z"/>
</symbol>
<symbol id="icon-vimeo" viewBox="0 0 448 512">
	<path d="M447.8 153.6c-2 43.6-32.4 103.3-91.4 179.1-60.9 79.2-112.4 118.8-154.6 118.8-26.1 0-48.2-24.1-66.3-72.3C100.3 250 85.3 174.3 56.2 174.3c-3.4 0-15.1 7.1-35.2 21.1L0 168.2c51.6-45.3 100.9-95.7 131.8-98.5 34.9-3.4 56.3 20.5 64.4 71.5 28.7 181.5 41.4 208.9 93.6 126.7 18.7-29.6 28.8-52.1 30.2-67.6 4.8-45.9-35.8-42.8-63.3-31 22-72.1 64.1-107.1 126.2-105.1 45.8 1.2 67.5 31.1 64.9 89.4z"/>
</symbol>
<symbol id="icon-youtube" viewBox="0 0 576 512">
	<path d="M549.655 124.083c-6.281-23.65-24.787-42.276-48.284-48.597C458.781 64 288 64 288 64S117.22 64 74.629 75.486c-23.497 6.322-42.003 24.947-48.284 48.597-11.412 42.867-11.412 132.305-11.412 132.305s0 89.438 11.412 132.305c6.281 23.65 24.787 41.5 48.284 47.821C117.22 448 288 448 288 448s170.78 0 213.371-11.486c23.497-6.321 42.003-24.171 48.284-47.821 11.412-42.867 11.412-132.305 11.412-132.305s0-89.438-11.412-132.305zm-317.51 213.508V175.185l142.739 81.205-142.739 81.201z"/>
</symbol>
<symbol id="icon-instagram" viewBox="0 0 448 512">
	<path d="M224.1 141c-63.6 0-114.9 51.3-114.9 114.9s51.3 114.9 114.9 114.9S339 319.5 339 255.9 287.7 141 224.1 141zm0 189.6c-41.1 0-74.7-33.5-74.7-74.7s33.5-74.7 74.7-74.7 74.7 33.5 74.7 74.7-33.6 74.7-74.7 74.7zm146.4-194.3c0 14.9-12 26.8-26.8 26.8-14.9 0-26.8-12-26.8-26.8s12-26.8 26.8-26.8 26.8 12 26.8 26.8zm76.1 27.2c-1.7-35.9-9.9-67.7-36.2-93.9-26.2-26.2-58-34.4-93.9-36.2-37-2.1-147.9-2.1-184.9 0-35.8 1.7-67.6 9.9-93.9 36.1s-34.4 58-36.2 93.9c-2.1 37-2.1 147.9 0 184.9 1.7 35.9 9.9 67.7 36.2 93.9s58 34.4 93.9 36.2c37 2.1 147.9 2.1 184.9 0 35.9-1.7 67.7-9.9 93.9-36.2 26.2-26.2 34.4-58 36.2-93.9 2.1-37 2.1-147.8 0-184.8zM398.8 388c-7.8 19.6-22.9 34.7-42.6 42.6-29.5 11.7-99.5 9-132.1 9s-102.7 2.6-132.1-9c-19.6-7.8-34.7-22.9-42.6-42.6-11.7-29.5-9-99.5-9-132.1s-2.6-102.7 9-132.1c7.8-19.6 22.9-34.7 42.6-42.6 29.5-11.7 99.5-9 132.1-9s102.7-2.6 132.1 9c19.6 7.8 34.7 22.9 42.6 42.6 11.7 29.5 9 99.5 9 132.1s2.7 102.7-9 132.1z"/>
</symbol>
<symbol id="icon-snapchat" viewBox="0 0 32 30">
	<path d="M31.7,23.4c-.4.7-1.7,1.3-4.2,1.7,0,.1-.1.4-.2.7l-.2.7c-.1.4-.4.6-.7.6s-.4,0-.8-.1c-.6-.1-1.2-.2-1.6-.2-.8,0-1.4.1-1.9.3-.4.2-.9.5-1.6,1-.9.6-1.5,1-2,1.2-.8.4-1.7.5-2.5.4-.9.1-1.7,0-2.5-.5-.6-.2-1.2-.6-1.8-1.1h0c-.7-.6-1.3-.9-1.6-1-.5-.2-1.2-.3-1.9-.3s-1,.1-1.7.2c-.4,0-.6,0-.7,0-.4,0-.6-.2-.7-.6l-.2-.7c-.1-.4-.2-.7-.2-.8-2.8-.4-4.2-1-4.2-2s0-.3.1-.4c.1-.1.2-.2.4-.2,1.8-.2,3.4-1.2,4.7-2.8.7-.8,1.2-1.6,1.5-2.5h0c.2-.5.3-.9.2-1.2-.1-.2-.4-.5-.7-.7-.2-.1-.6-.2-1-.4h-.4c-1.2-.6-1.7-1.2-1.6-1.8,0-.4.3-.6.8-.9.5-.2.9-.2,1.2,0,.6.2,1,.4,1.5.4s.4,0,.6-.1v-.7c-.2-1.5-.2-2.6-.2-3.4,0-1.2.2-2.2.5-3,.9-2,2.3-3.4,4.2-4.2,1.1-.5,2.3-.8,3.6-.8h.6c1.7,0,3.2.4,4.6,1.3,1.4.9,2.5,2.2,3.3,3.8.2.7.4,1.7.5,3,0,.8,0,1.9-.1,3.4v.8c0,.1.2.1.5.1.4,0,.9-.1,1.4-.4.4-.2.8-.2,1.3,0,.6.2.9.6.9,1.1s-.6,1.1-1.6,1.5h-.4c-1,.5-1.7.9-1.8,1.2-.1.3,0,.7.2,1.1h0c.3.9.8,1.7,1.5,2.5,1.4,1.6,2.9,2.6,4.7,2.8.2,0,.3.2.4.4.1.2.1.4,0,.6Z"/>
</symbol>

<!-- Alerts -->
<symbol id="icon-exclamation" viewBox="0 0 576 512">
	<path d="M569.517 440.013C587.975 472.007 564.806 512 527.94 512H48.054c-36.937 0-59.999-40.055-41.577-71.987L246.423 23.985c18.467-32.009 64.72-31.951 83.154 0l239.94 416.028zM288 354c-25.405 0-46 20.595-46 46s20.595 46 46 46 46-20.595 46-46-20.595-46-46-46zm-43.673-165.346l7.418 136c.347 6.364 5.609 11.346 11.982 11.346h48.546c6.373 0 11.635-4.982 11.982-11.346l7.418-136c.375-6.874-5.098-12.654-11.982-12.654h-63.383c-6.884 0-12.356 5.78-11.981 12.654z"/>
</symbol>
<symbol id="icon-success" viewBox="0 0 512 512">
	<path d="M504 256c0 136.967-111.033 248-248 248S8 392.967 8 256 119.033 8 256 8s248 111.033 248 248zM227.314 387.314l184-184c6.248-6.248 6.248-16.379 0-22.627l-22.627-22.627c-6.248-6.249-16.379-6.249-22.628 0L216 308.118l-70.059-70.059c-6.248-6.248-16.379-6.248-22.628 0l-22.627 22.627c-6.248 6.248-6.248 16.379 0 22.627l104 104c6.249 6.249 16.379 6.249 22.628.001z"/>
</symbol>
<symbol id="icon-info" viewBox="0 0 512 512">
	<path d="M256 8C119.043 8 8 119.083 8 256c0 136.997 111.043 248 248 248s248-111.003 248-248C504 119.083 392.957 8 256 8zm0 110c23.196 0 42 18.804 42 42s-18.804 42-42 42-42-18.804-42-42 18.804-42 42-42zm56 254c0 6.627-5.373 12-12 12h-88c-6.627 0-12-5.373-12-12v-24c0-6.627 5.373-12 12-12h12v-64h-12c-6.627 0-12-5.373-12-12v-24c0-6.627 5.373-12 12-12h64c6.627 0 12 5.373 12 12v100h12c6.627 0 12 5.373 12 12v24z"/>
</symbol>
<symbol id="icon-question" viewBox="0 0 512 512">
	<path d="M504 256c0 136.997-111.043 248-248 248S8 392.997 8 256C8 119.083 119.043 8 256 8s248 111.083 248 248zM262.655 90c-54.497 0-89.255 22.957-116.549 63.758-3.536 5.286-2.353 12.415 2.715 16.258l34.699 26.31c5.205 3.947 12.621 3.008 16.665-2.122 17.864-22.658 30.113-35.797 57.303-35.797 20.429 0 45.698 13.148 45.698 32.958 0 14.976-12.363 22.667-32.534 33.976C247.128 238.528 216 254.941 216 296v4c0 6.627 5.373 12 12 12h56c6.627 0 12-5.373 12-12v-1.333c0-28.462 83.186-29.647 83.186-106.667 0-58.002-60.165-102-116.531-102zM256 338c-25.365 0-46 20.635-46 46 0 25.364 20.635 46 46 46s46-20.636 46-46c0-25.365-20.635-46-46-46z"/>
</symbol>
<symbol id="icon-flag" viewBox="0 0 512 512">
  <path d="M349.565 98.783C295.978 98.783 251.721 64 184.348 64c-24.955 0-47.309 4.384-68.045 12.013a55.947 55.947 0 0 0 3.586-23.562C118.117 24.015 94.806 1.206 66.338.048 34.345-1.254 8 24.296 8 56c0 19.026 9.497 35.825 24 45.945V488c0 13.255 10.745 24 24 24h16c13.255 0 24-10.745 24-24v-94.4c28.311-12.064 63.582-22.122 114.435-22.122 53.588 0 97.844 34.783 165.217 34.783 48.169 0 86.667-16.294 122.505-40.858C506.84 359.452 512 349.571 512 339.045v-243.1c0-23.393-24.269-38.87-45.485-29.016-34.338 15.948-76.454 31.854-116.95 31.854z"/>
</symbol>
<symbol id="icon-prohibited" viewBox="0 0 512 512">
  <path d="M504 256c0 136.997-111.043 248-248 248S8 392.997 8 256C8 119.083 119.043 8 256 8s248 111.083 248 248zm-248 50c-25.405 0-46 20.595-46 46s20.595 46 46 46 46-20.595 46-46-20.595-46-46-46zm-43.673-165.346l7.418 136c.347 6.364 5.609 11.346 11.982 11.346h48.546c6.373 0 11.635-4.982 11.982-11.346l7.418-136c.375-6.874-5.098-12.654-11.982-12.654h-63.383c-6.884 0-12.356 5.78-11.981 12.654z"/>
</symbol>

<!-- Logos -->
<symbol id="academic-mark" viewBox="0 0 411 512">
	<path d="M69.7,88.6c1,3,6.7,19.7,6.7,19.7,0,0,5.7-16.7,6.7-19.7,3.2.6,20.4,4,20.4,4,0,0-11.6-13.3-13.7-15.7,2.1-2.4,13.7-15.7,13.7-15.7,0,0-17.3,3.4-20.4,4-1-3-6.7-19.7-6.7-19.7,0,0-5.7,16.7-6.7,19.7-3.2-.6-20.4-4-20.4-4,0,0,11.6,13.3,13.7,15.7-2.1,2.4-13.7,15.7-13.7,15.7,0,0,17.3-3.4,20.4-4"/>
  <path d="M213.3,323.9v-104c5.4-2.3,18.1-5.5,43.1-2.3,22.5,2.9,36.9,1.6,44.6.2v102.5c-7.2,2-20.5,3.9-42.3,1.1-25.7-3.3-39.6.2-45.3,2.4M382.9,189.6c0,75.5-23.2,135.4-56.5,182.5,0,0-6.5-2.4-16.5-2.4-21.3,0-27.7,12.5-53.2,12.5s-22-6.8-34.7-10.4v-33.5h94.5v-139.7s-22.1,9.7-60,4.4c-15.1-2.2-26.4-1.7-34.6-.4v-44.9h70.7l23.8,13.8v-56.3l-23.8,13.8h-70.7v-54.7l13.9-24h-60.5l13.9,24v54.7h-70.7l-23.9-13.8v56.3l23.9-13.8h70.7v44.9c-8.1-1.3-19.5-1.7-34.5.4-37.9,5.4-60-4.4-60-4.4v139.7h94.6v33.5c-12.7,3.6-19.2,10.4-34.7,10.4-25.5,0-31.8-12.5-53.2-12.5s-16.7,2.4-16.7,2.4c-33.3-47.1-56.5-106.9-56.5-182.5V28h354.8v161.5s0,0,0,0ZM197.7,323.7c-5.9-2.3-19.7-5.7-45.2-2.4-21.7,2.8-35.1.9-42.2-1.1v-102.4c7.6,1.4,22,2.6,44.4-.3,24.9-3.2,37.5,0,43,2.2v104ZM276.8,428c-5.3,4.6-7.7,6-12.6,7.1-2.5.5-7.6.7-7.6.7-20.9,0-25.5-12.5-51-12.5s-30.2,12.5-51,12.5c0,0-5.1-.2-7.5-.7-4.9-1.1-7.3-2.5-12.7-7.1-10.3-9-19.2-18.3-28.6-29.1,19.2,0,24,11.6,48.8,11.6s25.5-12.6,51-12.6,30.1,12.6,51,12.6,29.6-11.6,48.8-11.6c-9.4,10.8-18.3,20.2-28.6,29.1M205.5,479.3c-10.2-5.8-20-11.9-30.5-19.2,8.2-3.6,15.4-9.1,30.5-9.1s22.3,5.5,30.5,9.1c-10.5,7.2-20.4,13.3-30.5,19.2M.2,0v186.7c0,178,113.1,273.3,205.3,325.3,92.2-52,205.3-147.3,205.3-325.3V0H.2Z"/>
</symbol>
<symbol id="shield" viewBox="0 0 411 512">
	<path d="M69.7,88.6c1,3,6.7,19.7,6.7,19.7,0,0,5.7-16.7,6.7-19.7,3.2.6,20.4,4,20.4,4,0,0-11.6-13.3-13.7-15.7,2.1-2.4,13.7-15.7,13.7-15.7,0,0-17.3,3.4-20.4,4-1-3-6.7-19.7-6.7-19.7,0,0-5.7,16.7-6.7,19.7-3.2-.6-20.4-4-20.4-4,0,0,11.6,13.3,13.7,15.7-2.1,2.4-13.7,15.7-13.7,15.7,0,0,17.3-3.4,20.4-4"/>
  <path d="M213.3,323.9v-104c5.4-2.3,18.1-5.5,43.1-2.3,22.5,2.9,36.9,1.6,44.6.2v102.5c-7.2,2-20.5,3.9-42.3,1.1-25.7-3.3-39.6.2-45.3,2.4M382.9,189.6c0,75.5-23.2,135.4-56.5,182.5,0,0-6.5-2.4-16.5-2.4-21.3,0-27.7,12.5-53.2,12.5s-22-6.8-34.7-10.4v-33.5h94.5v-139.7s-22.1,9.7-60,4.4c-15.1-2.2-26.4-1.7-34.6-.4v-44.9h70.7l23.8,13.8v-56.3l-23.8,13.8h-70.7v-54.7l13.9-24h-60.5l13.9,24v54.7h-70.7l-23.9-13.8v56.3l23.9-13.8h70.7v44.9c-8.1-1.3-19.5-1.7-34.5.4-37.9,5.4-60-4.4-60-4.4v139.7h94.6v33.5c-12.7,3.6-19.2,10.4-34.7,10.4-25.5,0-31.8-12.5-53.2-12.5s-16.7,2.4-16.7,2.4c-33.3-47.1-56.5-106.9-56.5-182.5V28h354.8v161.5s0,0,0,0ZM197.7,323.7c-5.9-2.3-19.7-5.7-45.2-2.4-21.7,2.8-35.1.9-42.2-1.1v-102.4c7.6,1.4,22,2.6,44.4-.3,24.9-3.2,37.5,0,43,2.2v104ZM276.8,428c-5.3,4.6-7.7,6-12.6,7.1-2.5.5-7.6.7-7.6.7-20.9,0-25.5-12.5-51-12.5s-30.2,12.5-51,12.5c0,0-5.1-.2-7.5-.7-4.9-1.1-7.3-2.5-12.7-7.1-10.3-9-19.2-18.3-28.6-29.1,19.2,0,24,11.6,48.8,11.6s25.5-12.6,51-12.6,30.1,12.6,51,12.6,29.6-11.6,48.8-11.6c-9.4,10.8-18.3,20.2-28.6,29.1M205.5,479.3c-10.2-5.8-20-11.9-30.5-19.2,8.2-3.6,15.4-9.1,30.5-9.1s22.3,5.5,30.5,9.1c-10.5,7.2-20.4,13.3-30.5,19.2M.2,0v186.7c0,178,113.1,273.3,205.3,325.3,92.2-52,205.3-147.3,205.3-325.3V0H.2Z"/>
</symbol>
<symbol id="mobile-mark" viewBox="0 0 512 86">
	<g class="shield">
    <path d="M11.6,15c.2.5,1.1,3.3,1.1,3.3,0,0,.9-2.8,1.1-3.3.5.1,3.4.7,3.4.7,0,0-1.9-2.2-2.3-2.6.4-.4,2.3-2.6,2.3-2.6,0,0-2.9.6-3.4.7-.2-.5-1.1-3.3-1.1-3.3,0,0-.9,2.8-1.1,3.3-.5-.1-3.4-.7-3.4-.7,0,0,1.9,2.2,2.3,2.6-.4.4-2.3,2.6-2.3,2.6,0,0,2.9-.6,3.4-.7"/>
    <path d="M35.7,54.4v-17.4c.9-.4,3-.9,7.2-.4,3.8.5,6.2.3,7.5,0v17.2c-1.2.3-3.4.7-7.1.2-4.3-.6-6.6,0-7.6.4M64.1,31.9c0,12.6-3.9,22.7-9.5,30.5,0,0-1.1-.4-2.8-.4-3.6,0-4.6,2.1-8.9,2.1s-3.7-1.1-5.8-1.7v-5.6h15.8v-23.4s-3.7,1.6-10,.7c-2.5-.4-4.4-.3-5.8,0v-7.5h11.8l4,2.3v-9.4l-4,2.3h-11.8v-9.1l2.3-4h-10.1l2.3,4v9.1h-11.8l-4-2.3v9.4l4-2.3h11.8v7.5c-1.4-.2-3.3-.3-5.8,0-6.3.9-10-.7-10-.7v23.4h15.8v5.6c-2.1.6-3.2,1.7-5.8,1.7-4.3,0-5.3-2.1-8.9-2.1s-2.8.4-2.8.4c-5.6-7.9-9.5-17.9-9.5-30.5V4.9h59.4v27h0ZM33.1,54.4c-1-.4-3.3-1-7.6-.4-3.6.5-5.9.2-7.1-.2v-17.1c1.3.2,3.7.4,7.4,0,4.2-.5,6.3,0,7.2.4v17.4h.1ZM46.3,71.8c-.9.8-1.3,1-2.1,1.2h-1.3c-3.5,0-4.3-2.1-8.5-2.1s-5,2.1-8.5,2.1h-1.3c-.8-.2-1.2-.4-2.1-1.2-1.7-1.5-3.2-3.1-4.8-4.9,3.2,0,4,1.9,8.2,1.9s4.3-2.1,8.5-2.1,5,2.1,8.5,2.1,5-1.9,8.2-1.9c-1.6,1.8-3.1,3.4-4.8,4.9M34.4,80.3c-1.7-1-3.4-2-5.1-3.2,1.4-.6,2.6-1.5,5.1-1.5s3.7.9,5.1,1.5c-1.8,1.2-3.4,2.2-5.1,3.2M0,.2v31.2c0,29.8,18.9,45.8,34.4,54.4,15.4-8.7,34.4-24.7,34.4-54.5V.2H0Z"/>
  </g>
  <g class="wordmark">
    <path d="M129.6,49.2c0,1.8,0,9.4.2,10.8-.5.7-1.4.9-2.1.9-1-1.3-2.8-3.4-7.2-8.4l-14.4-16.4c-4-4.5-6-6.8-7-7.7-.2,0-.2.7-.2,3.9v12c0,4.6,0,10.3,1.1,12.1.6.9,1.6,1.3,3.1,1.5l1.3.2c.6.4.5,1.6,0,1.8-2.3,0-4.7-.2-7-.2s-4.2,0-6.4.2c-.5-.3-.6-1.4,0-1.8l1.3-.3c1.2-.2,2.3-.4,2.7-1.4.8-1.9.8-7.3.8-12.1v-14.6c0-4.8,0-5.8-2-7.5-.7-.5-2.4-1-3.2-1.2l-.9-.2c-.4-.4-.4-1.6.2-1.8,2.3.2,5.7.2,7.2.2s2.8,0,4.2-.2c1.1,2.7,7.8,10.4,9.9,12.7l6.2,6.7c2.6,2.8,8.3,9.3,8.9,9.7.2-.2.2-.5.2-1.5v-12c0-4.6,0-10.3-1.2-12.1-.6-.9-1.5-1.3-3.1-1.5l-1.4-.2c-.6-.4-.5-1.6,0-1.8,2.4.1,4.7.2,7.1.2s4.2,0,6.4-.2c.5.3.6,1.4.1,1.8l-1.4.3c-1.2.2-2.2.4-2.6,1.4-.9,1.9-.9,7.2-.9,12.1v14.7h.2-.1Z"/>
    <path d="M160.8,18.1c-12.9,0-22,9.3-22,21.8s8,20.7,21.9,20.7,21.6-9,21.6-21.1-7.3-21.4-21.5-21.4M160,20.6c9.8,0,14,10.8,14,20s-5.7,17.6-12.7,17.6c-10.5,0-14.1-11.6-14.1-20,0-13.1,6.7-17.6,12.8-17.6"/>
    <path d="M201.3,24.2c0-2.6,0-2.7-1.6-2.7h-1.8c-5.6,0-7.3.7-9.6,5.6-.4.4-1.7.2-2-.4,1.1-3.3,2-7.1,2.4-9.3.1-.2.4-.2.7-.2s.5,0,.6.2c.3,1.5,1.2,1.6,5.3,1.6h21.8c3,0,3.9-.2,4.7-1.6.2-.1.5-.2.7-.2.4,0,.7.1.8.3-.6,2.5-1.1,7.8-.9,9.8-.3.5-1.4.6-1.9.2-.8-4.8-2-6-8.5-6h-1.9c-1.6,0-1.7.1-1.7,2.7v26.6c0,6.5.6,6.7,3.5,7l2.2.2c.4.4.4,1.5-.1,1.8-3.6,0-6.3-.2-9-.2s-5.6,0-9.5.2c-.5-.3-.6-1.5-.1-1.8l2.6-.3c2.9-.2,3.4-.4,3.4-6.9v-26.5h0Z"/>
    <path d="M234.4,50.8c0,6.5-.6,6.7-3.4,7.1l-1.4.2c-.5.4-.4,1.5.1,1.8,2.8,0,5.6-.2,8.3-.2s5.5,0,8.1.2c.5-.3.6-1.4.1-1.8l-1.3-.2c-2.9-.4-3.4-.5-3.4-7.1v-7.9c0-1.3,0-1.4,1.9-1.4s2.7.2,3.8,2.1c1.5,2.4,3.2,5.8,4.9,8.4,3.8,5.7,7,8.1,12.9,8.1s3.3-.2,4-.4c.2-.3.2-1-.1-1.2-.7,0-2.5-.4-4.2-1.9-2.9-2.4-6-7.6-10.9-15.9-.2-.4-.4-.9,0-1,3-1.2,7.4-4.1,7.4-9.7s-2.3-7.3-5.4-9c-2.7-1.5-6.9-2.1-11.7-2.1s-10.2.2-14.1.6c-.5.3-.5,1.3,0,1.7l1.6.2c2.9.3,2.9,1,2.9,7v22.5h-.1ZM241.5,24.4c0-2.8,0-3,3.3-3,5.3,0,8.5,4.2,8.5,9.1s-2.8,8.8-8.8,8.8-3,0-3-2.1v-12.8h0Z"/>
    <path d="M279.4,28c0-6.5-.5-6.7-3.4-7.1h-1c-.4-.6-.4-1.7.1-1.9,1.2,0,2.5.1,3.8.1h15.9c3.9,0,7.5,0,8.3-.2.2,1,.6,5.9,1,8.5-.2.5-1.5.6-2,.2-1-3.6-1.9-5.1-3.9-5.6-1.4-.4-3.3-.5-4.9-.5h-4.1c-2.6,0-2.6.1-2.6,3.6v10.4c0,1.6,0,1.7,1.5,1.7h2.9c5.4,0,6.4,0,6.8-2.7l.4-2.1c.5-.4,1.7-.4,2,0,0,1.7-.2,3.9-.2,6.2s.1,4.5.2,6.5c-.3.4-1.5.4-2,0l-.4-2.5c-.4-2.6-1.5-2.7-6.8-2.7h-2.9c-1.4,0-1.5,0-1.5,1.7v7.8c0,3.1.1,5.3,1,6.4.7.9,1.8,1.4,6.9,1.4,7.8,0,9.2-1.7,11.3-6.7.6-.4,1.6-.2,2,.4-.4,2.6-1.7,7.3-2.6,8.9h-22.2c-2.7,0-6.5,0-9.2.2-.5-.3-.5-1.4-.1-1.8l2.3-.2c2.9-.3,3.4-.5,3.4-7v-22.9h0Z"/>
    <path d="M334.4,50.8c0,6.5-.5,6.7-3.4,7.1l-1.4.2c-.4.4-.4,1.5.1,1.8,2.7,0,5.5-.2,7.8-.2s2.5,0,3.9.2c1.5,0,3.1.2,5,.2,5.6,0,10.9-.7,15.2-2.9,7.6-3.9,11-10.9,11-17.7s-5.2-15.7-12.6-18.4c-4.5-1.6-8.7-2.1-14.5-2.1s-11,.2-15.4.6c-.5.3-.5,1.4,0,1.7h1.3c2.9.5,2.9,1.2,2.9,7.1v22.5h.1ZM341.5,26.8c0-2.9,0-4.2.5-4.5.4-.4,2.4-.9,5-.9,10.3,0,17.3,5.9,17.3,18.1s-4.9,18.1-15.8,18.1-7-3.2-7-9.2v-21.6h0Z"/>
    <path d="M396,44.6c1.7,0,1.9,0,2.5,1.7l2.9,8.4c.8,2.6.6,3-1.6,3.2l-1.4.2c-.4.4-.3,1.5.2,1.8,2.1,0,4.8-.2,7.5-.2s5.5,0,8,.2c.4-.3.4-1.3,0-1.8l-.9-.2c-3.1-.5-3.4-1-4.9-5.1l-8.9-25.8c-1-2.8-1.8-5.7-2.7-8.4-.3-.3-.6-.5-1.1-.5s-2.1,2.5-4.3,2.9c.2,1-.4,2.5-1.2,4.5l-8.4,21.9c-1.3,3.3-2.3,5.9-3,7.5-.9,2-1.6,2.6-3.4,2.8l-1.9.3c-.4.5-.4,1.5,0,1.8,2.1,0,4.1-.2,6.1-.2s4.6,0,6.5.2c.5-.3.6-1.3.1-1.8l-1.8-.3c-2.3-.3-2.5-.5-1.3-4.1l2.5-7.4c.3-1.1,1-1.7,2.1-1.7h8.4,0ZM388.8,41.8c-1.5,0-1.6,0-1-1.8l2.6-7.2c1.1-2.9,1.6-4.4,1.8-4.9h.1c.3.4.7,1.6,1.7,4.9l2.6,7.4c.5,1.5.2,1.6-1.5,1.6h-6.4,0Z"/>
    <path d="M470.5,58c.6.3.5,1.5-.1,1.8-2.7,0-5.1-.2-7.5-.2s-5.5,0-8.2.2c-.5-.3-.7-1.4-.1-1.8l1.7-.3c2.5-.4,2.6-.9,2.6-5.1v-25.1h-.1c-1.7,3.4-2.5,5.2-3.7,7.7l-5.3,10.8c-2.1,4.3-5.2,11.1-6.3,14-.2.2-1.2.2-1.6,0-1-3.3-3.7-9.3-5.1-12.4l-5.5-11.8c-1.2-2.6-2.8-6.5-3.6-8.3h-.1c-.1,3-.2,7.8-.4,10.4-.1,3.8-.3,9.2-.3,14.3s0,5,2.7,5.5l2,.4c.4.4.4,1.5,0,1.8-2.3,0-4.2-.2-6.5-.2s-4.2,0-6.6.2c-.6-.3-.6-1.5-.2-1.8h1c2.9-.5,3.4-1.4,3.8-5.2.5-3.9.6-7.8.9-14.2.2-4.2.6-9.3.6-13s-.9-4.2-3.3-4.5l-2.1-.4c-.4-.4-.3-1.6.2-1.8,1.8.1,3.5.2,5.8.2s4.3,0,6.6-.2c.2,3.7,1.8,6.9,3.4,10.2l6.8,14.2c.5,1,2.1,4.1,2.9,5.5,1-1.8,1.8-3.5,3.2-6.4l5.8-11.8c2-4,4-7.7,5-11.7,1.7.1,3.7.2,5.1.2,2.6,0,4.7,0,6.5-.2.7.2.8,1.4.2,1.8l-2,.3c-2.7.4-3.3,1.4-3.3,4.7,0,9.1.1,18.2.5,27.3.2,4.1.9,4.5,2.8,4.8l1.8.3h0v-.2h0Z"/>
    <path d="M483.6,28c0-6.5-.5-6.7-3.4-7.1h-1c-.4-.6-.4-1.7.1-1.9,1.2,0,2.5.1,3.8.1h15.8c3.9,0,7.5,0,8.3-.2.2,1,.6,5.9,1,8.5-.2.5-1.5.6-2,.2-1-3.6-1.9-5.1-3.9-5.6-1.4-.4-3.2-.5-4.9-.5h-4.1c-2.6,0-2.6.1-2.6,3.6v10.4c0,1.6,0,1.7,1.5,1.7h2.9c5.4,0,6.4,0,6.8-2.7l.4-2.1c.5-.4,1.6-.4,2,0,0,1.7-.2,3.9-.2,6.2s.1,4.5.2,6.5c-.3.4-1.5.4-2,0l-.4-2.5c-.4-2.6-1.5-2.7-6.8-2.7h-2.9c-1.4,0-1.5,0-1.5,1.7v7.8c0,3.1.1,5.3,1,6.4.7.9,1.8,1.4,7,1.4,7.8,0,9.2-1.7,11.3-6.7.5-.4,1.6-.2,2,.4-.4,2.6-1.7,7.3-2.6,8.9h-22.2c-2.7,0-6.5,0-9.2.2-.5-.3-.5-1.4-.1-1.8l2.3-.2c2.9-.3,3.4-.5,3.4-7v-22.9h0Z"/>
  </g>
</symbol>
</defs>
</svg>