
<svg id="Layer_1" xmlns="http://www.w3.org/2000/svg" version="1.1" viewBox="0 0 200 82.5">
  <style>
    :root {
      color-scheme:light dark;
    }

    #shield path { fill:#ae9142; }
    #text path { fill:#0c2340; }
    #name path { fill:#0c2340; }

    @media (prefers-color-scheme:dark) {
      #text path { fill:#fff; }
      #name path { fill:#fff; }
    }
  </style>
  <g id="shield">
    <path d="M6.2,6.1l-2.3-.5,1.5,1.7-1.5,1.7,2.3-.5.7,2.2.7-2.2,2.3.5-1.5-1.7,1.5-1.7-2.3.5-.7-2.2-.7,2.2ZM6.9,5.6l.4,1.1,1.2-.2-.8.9.8.9-1.2-.2-.4,1.1c-.2-.4-.4-1.1-.4-1.1l-1.2.2.8-.9-.8-.9,1.2.2.4-1.1"/>
    <path d="M11.7,22c.1-.3.2-.5.3-.6,0,0,0,0,0,0,0,0,0,0,.1,0h0c0,0-.6,0-.6,0,0,0,0,0,0,0s0,0,0,0h0c0,0,0,0,0,.2-.2.4-.3.8-.5,1.2l-.2-.4-.2-.5c0-.1-.1-.3-.1-.4,0,0,0,0,0,0h0s0,0,0,0c0,0,0,0,0,0s0,0,0,0,0,0,0,0h-.7c0,0,0,0,0,0,.1,0,.1,0,.2.3l.5,1.2c0,.1,0,.3.1.4h.1c0-.1.2-.5.3-.8l.2-.3Z"/>
    <path d="M13,22.7c0,.3,0,.3.2.3h0s0,0,0,0,0,0,0,0h-.8s0,0,0,0,0,0,0,0h0c.1,0,.2,0,.2-.3v-1.1c0-.3,0-.3-.2-.3h0c0,0,.8,0,.8,0h0c0,0,0,0,0,0-.1,0-.2,0-.2.3v1.1Z"/>
    <path d="M14.2,21.4c0-.1,0-.1,0-.1h-.2c-.3,0-.3,0-.4.3,0,0,0,0,0,0s0,0,0,0c0-.2,0-.3.1-.4h0c0,0,0,0,.2,0h1.2c.1,0,.2,0,.2,0,0,0,0,0,0,0,0,.2,0,.3,0,.5,0,0,0,0,0,0s0,0,0,0c0-.2,0-.3-.4-.3h-.2q0,0,0,.1v1.3c0,.3,0,.3.2.3h.1s0,0,0,0,0,0,0,0h-.8s0,0,0,0c0,0,0,0,0,0s0,0,0,0c0,0,0,0,0,0h.1c.1,0,.2,0,.2-.3v-1.3Z"/>
    <path d="M16.1,22.4c0,0,.1,0,.1,0v.4c.2.1.1.1,0,.2h0s0,0,0,0,0,0,0,0h.7s0,0,0,0,0,0,0,0h0c-.2,0-.2,0-.2-.2l-.4-1.2c0-.1,0-.3-.1-.4,0,0,0,0,0,0s0,0,0,0c0,0-.1.1-.2.1,0,0,0,.1,0,.2l-.4,1c0,.2-.1.3-.1.4,0,0,0,.1-.2.1h0s0,0,0,0,0,0,0,0h.6c0,0,0,0,0,0-.1,0-.1,0,0-.2v-.3c.1,0,.1,0,.2,0h.4ZM15.8,22.3c0,0,0,0,0-.1v-.3c.1,0,.2-.2.2-.2,0,0,0,.2,0,.2v.4c.1,0,.1.1,0,.1h-.3Z"/>
    <path d="M11.3,24.8v-.2c0,0,.1,0,.2,0,.4,0,.7.3.7.9s-.2.9-.7.9-.3-.2-.3-.4v-1ZM11,25.9c0,.3,0,.3-.1.3h0c0,0,.5,0,.5,0h.2c.2,0,.5,0,.7-.1.1,0,.3-.2.3-.4,0-.1.1-.3.1-.5,0-.2,0-.4-.1-.5,0-.2-.2-.3-.4-.3-.2,0-.4-.1-.6-.1-.2,0-.5,0-.7,0,0,0,0,0,0,0s0,0,0,0h0c.1,0,.1,0,.1.3v1.1Z"/>
    <path d="M13,24.9c0-.3,0-.3-.2-.3h0s0,0,0,0c0,0,0,0,0,0s0,0,0,0c0,0,0,0,0,0h.7s0,0,0,0,0,0,0,0h0c-.1,0-.2,0-.2.3v.7c0,.4.1.7.5.7s.5-.3.5-.7v-.4c0-.2,0-.4,0-.6,0,0,0,0,0,0,0,0,0,0,0,0h0c0,0,.6,0,.6,0,0,0,0,0,0,0,0,0,0,0,0,0s0,0,0,0c0,0,0,0,0,0h0s-.1,0-.1,0c0,.2,0,.4,0,.6v.4c0,.2,0,.5-.2.7,0,0-.2.1-.2.2,0,0-.2,0-.3,0-.1,0-.2,0-.3,0-.1,0-.2,0-.3-.2,0,0-.1-.2-.2-.3,0-.1,0-.2,0-.3v-.8Z"/>
    <path d="M15.6,24.9c0-.3,0-.3.2-.3h0c0,0-.8,0-.8,0h0c0,0,0,0,0,0,.1,0,.2,0,.2.3v1.1c0,.3,0,.3-.2.3h0c0,0,1.4,0,1.4,0,0-.1,0-.3.1-.4,0,0,0,0,0,0,0,0,0,0,0,0s0,0,0,0c0,0,0,0,0,0-.1.3-.2.3-.5.3s-.3,0-.3,0c0,0,0-.2,0-.3v-1Z"/>
    <path d="M28.6,18.9v-1.5c-1.7.6-3.6.7-5.4.4-3.3-.5-4.6.4-4.6.4,0,0-1.4-.9-4.6-.4-1.8.3-3.7.2-5.4-.4v1.5h-.9v11.6h9.5c.2.2.4.4.7.5.3.1.5.1.8.1.3,0,.5,0,.8-.1.3-.1.5-.3.7-.5h9.5v-11.6h-.9ZM18.2,29.3s-1.2-.8-4.4-.4c-3.3.4-4.4-.3-4.4-.3v-10.2s1.4.5,4.6.1c3.3-.4,4.2.4,4.2.4v10.4ZM27.9,28.6s-1.2.7-4.4.3c-3.3-.4-4.4.4-4.4.4v-10.4s.9-.8,4.2-.4c3.3.4,4.6-.1,4.6-.1v10.2Z"/>
    <path d="M21.3,21.7s0,0,0,0c0,0,0,0,0,0s0,0,0,0c0,0,0,0,0,0,0-.1,0-.2-.2-.3,0,0-.2-.1-.3-.1-.3,0-.6.3-.6.8s.3.9.7.9c.1,0,.2,0,.3-.1,0,0,.2-.2.2-.3,0,0,0,0,0,0,0,0,0,0,0,0s0,0,0,0c0,0,0,0,0,0,0,.1,0,.3-.1.4h0c-.1,0-.3,0-.4,0-.2,0-.5,0-.6-.2-.1,0-.2-.2-.3-.3,0-.1,0-.3,0-.4,0-.1,0-.3,0-.4,0-.1.1-.2.2-.3.2-.2.4-.2.7-.2.1,0,.3,0,.4,0h0c0,0,0,.2,0,.4"/>
    <path d="M21.8,21.6c0-.3,0-.3-.2-.3h0c0,0,1.2,0,1.2,0,0,0,0,.3,0,.4,0,0,0,0,0,0,0,0,0,0,0,0s0,0,0,0c0,0,0,0,0,0,0-.2,0-.2-.2-.3,0,0-.2,0-.2,0h-.2q-.1,0-.1.2v.5q0,0,0,0h0c.2,0,.3,0,.3-.1h0c0-.1,0-.1,0-.1s0,.2,0,.3v.3c0,0,0,0,0,0h0c0-.2,0-.2-.3-.2h0q0,0,0,0v.4c0,.2,0,.3,0,.3s0,0,.3,0c.4,0,.4,0,.5-.3,0,0,0,0,0,0,0,0,0,0,0,0s0,0,0,0c0,0,0,0,0,0,0,.1,0,.3-.1.4h-1.4s0,0,0,0c0,0,0,0,0,0s0,0,0,0c0,0,0,0,0,0h.1c.1,0,.2,0,.2-.3v-1.1Z"/>
    <path d="M23.7,21.6v-.2s0,0,.1,0c.5,0,.8.3.8.9s-.2.9-.7.9-.2-.2-.2-.4v-1ZM23.4,22.7c0,.3,0,.3-.2.3h0c0,0,.7,0,.7,0,.2,0,.4,0,.6-.1.1,0,.3-.2.4-.4,0-.1.1-.3.1-.5,0-.2,0-.4-.1-.5,0-.2-.2-.3-.4-.3-.2,0-.4-.1-.6,0h-.6s0,0,0,0,0,0,0,0h0c.1,0,.1,0,.1.3v1.1Z"/>
    <path d="M26.2,21.3c.4,0,.6.5.6.9s-.2.8-.5.8c-.4,0-.6-.5-.6-.9,0-.6.3-.8.5-.8ZM26.2,21.2c-.1,0-.3,0-.4,0-.1,0-.2.1-.3.2,0,0-.2.2-.2.3,0,.1,0,.3,0,.4,0,.1,0,.3,0,.4,0,.1.1.2.2.3,0,0,.2.2.3.2.1,0,.2,0,.4,0,.1,0,.3,0,.4,0,.1,0,.2-.1.3-.2,0,0,.2-.2.2-.3,0-.1,0-.2,0-.4,0-.1,0-.3,0-.4,0-.1-.1-.2-.2-.3,0,0-.2-.2-.3-.2-.1,0-.2,0-.4,0Z"/>
    <path d="M20.4,26.3c0-.1,0-.3,0-.4,0,0,0,0,0,0,0,0,0,0,0,0s0,0,0,0c0,0,0,0,0,0,0,.2.2.5.5.5,0,0,0,0,.1,0,0,0,0,0,.1,0,0,0,0,0,0-.1,0,0,0,0,0-.1,0,0,0-.2,0-.3,0,0-.1-.1-.2-.2h-.1c-.1-.1-.2-.2-.3-.3,0,0-.1-.2-.1-.3,0-.3.2-.5.6-.5.1,0,.3,0,.4,0,0,.1,0,.3,0,.4,0,0,0,0,0,0,0,0,0,0,0,0s0,0,0,0c0,0,0,0,0,0,0,0,0-.2-.1-.2,0,0-.2-.1-.3-.1,0,0,0,0-.1,0,0,0,0,0-.1,0,0,0,0,0,0,.1,0,0,0,0,0,.1,0,0,0,.2,0,.2,0,0,.1.1.2.1h.2c.1.2.2.2.3.3,0,.1.1.2.1.3,0,0,0,.2,0,.2,0,0,0,.1-.2.2,0,0-.1,0-.2.1,0,0-.2,0-.3,0-.2,0-.3,0-.5-.1"/>
    <path d="M22.1,24.9c0-.3,0-.3-.1-.3h-.1c.2,0,.4,0,.6,0,.2,0,.4,0,.6.1,0,0,.1.1.2.2,0,0,0,.2,0,.3,0,0,0,.2,0,.2,0,0,0,.1-.1.2,0,0-.1,0-.2.1,0,0-.2,0-.2,0h0s0,0,0,0,0,0,0,0c.1,0,.2,0,.3-.2,0,0,0-.2,0-.3,0,0,0-.1,0-.2,0,0,0-.1,0-.1,0,0,0,0-.1,0,0,0-.1,0-.2,0q-.1,0-.1.1v1.3c0,.3,0,.3.2.3h.1c0,0-.8,0-.8,0h0c0,0,0,0,0,0,.1,0,.2,0,.2-.3v-1.1Z"/>
    <path d="M23.8,25.9c0,.3,0,.3-.2.3h-.1c0,0,1.4,0,1.4,0,0-.1.1-.3.1-.4,0,0,0,0,0,0s0,0,0,0c0,.2-.1.3-.5.3-.2,0-.3,0-.3,0,0,0,0-.2,0-.3v-.3c0,0,0,0,0,0h.1c.2,0,.3,0,.3.1h0c0,.1,0,.1,0,.1s0-.2,0-.3v-.3c0,0,0,0,0,0h0c0,.2,0,.2-.3.2h-.1c0,0,0,0,0,0v-.6c0-.2,0-.2.1-.2h.2c0,0,.1,0,.2,0,0,0,.1,0,.2.3h0c0-.1,0-.4,0-.4h-1.2c0,0,0,0,0,0,.1,0,.2,0,.2.3v1.1Z"/>
    <path d="M25.4,26.3c0-.1,0-.3,0-.4h0c0,.2.2.5.5.5,0,0,0,0,.1,0,0,0,0,0,.1,0,0,0,0,0,0-.1,0,0,0,0,0-.1,0,0,0-.2,0-.3,0,0-.1-.1-.2-.2h-.1c-.1-.1-.2-.2-.3-.3,0,0-.1-.2-.1-.3,0-.3.2-.5.6-.5.1,0,.3,0,.4,0,0,.1,0,.3,0,.4h0c0,0,0-.2-.1-.2,0,0-.2-.1-.3-.1,0,0,0,0-.1,0,0,0,0,0-.1,0,0,0,0,0,0,.1,0,0,0,0,0,.1,0,0,0,.2,0,.2,0,0,.1.1.2.1h.2c.1.2.2.2.3.3,0,.1.1.2.1.3,0,0,0,.2,0,.2,0,0,0,.1-.1.2s-.1,0-.2.1c0,0-.2,0-.2,0-.2,0-.3,0-.5-.1"/>
    <path d="M18.6.4H0v16.9c0,16.1,10.2,24.8,18.6,29.5,8.4-4.7,18.6-13.3,18.6-29.5V.4h-18.6ZM18.6,43.8c-.9-.5-1.8-1.1-2.7-1.7.8-.5,1.8-.8,2.7-.8,1,0,1.9.3,2.7.8-.9.7-1.8,1.2-2.7,1.7ZM25.1,39.2c-.3.3-.7.6-1.1.6-.2,0-.5,0-.7,0-1.9,0-2.3-1.1-4.6-1.1s-2.7,1.1-4.6,1.1c-.2,0-.5,0-.7,0-.4,0-.8-.3-1.1-.6-.9-.8-1.8-1.7-2.6-2.6,1.7,0,2.2,1.1,4.4,1.1s2.3-1.1,4.6-1.1,2.7,1.1,4.6,1.1,2.7-1,4.4-1.1c-.8.9-1.7,1.8-2.6,2.6M34.7,17.6c0,5.9-1.7,11.7-5.1,16.5-.5-.2-1-.2-1.5-.2-1.9,0-2.5,1.1-4.8,1.1s-2-.6-3.1-.9v-2.7s-.3.5-1.5.5-1.5-.5-1.5-.5v2.7c-1.1.3-1.7.9-3.1.9-2.3,0-2.9-1.1-4.8-1.1-.5,0-1,0-1.5.2-3.4-4.8-5.2-10.6-5.2-16.5V3h32.1v14.6Z"/>
    <path d="M20.1,14.3h6.4l2.2,1.2v-5.1l-2.2,1.2h-6.4v-4.9l1.3-2.2h-5.5l1.3,2.2v4.9h-6.4l-2.2-1.2v5.1l2.2-1.2h6.4v2.6c.5,0,1,.2,1.5.4.5-.2,1-.4,1.5-.4v-2.6h0Z"/>
    <path d="M16.2,25.4h0c0,0,0-.2.2-.2,0,0,.1,0,.2,0,.2.1.3.1.3.1s.3,0,.3-.3h0c0,.1,0,.2-.2.2s0,0-.3-.1c0,0-.2,0-.3-.1,0,0-.2,0-.3.3"/>
  </g>
  <g id="text">
    <path d="M57.5,26.6c0,.7,0,3.5,0,4,0,.1-.2.2-.3.3-.1,0-.3,0-.4,0-.4-.5-1-1.3-2.7-3.1l-5.4-6.1c-1.5-1.7-2.2-2.5-2.6-2.9,0,0,0,.3,0,1.5v4.4c0,1.7,0,3.8.4,4.5.1.2.3.3.5.4.2,0,.4.2.6.2h.5c.2.2.2.7,0,.7-.9,0-1.7,0-2.6,0s-1.6,0-2.4,0c0,0,0,0-.1-.1,0,0,0-.1,0-.2,0,0,0-.1,0-.2,0,0,0-.1,0-.2h.5c.4-.2.8-.3,1-.6.3-.7.3-2.7.3-4.5v-5.4c0-1.8,0-2.1-.8-2.8-.4-.2-.8-.4-1.2-.5h-.4c-.2-.2-.1-.7,0-.8.9,0,2.1,0,2.7,0s1,0,1.6,0c.4,1,2.9,3.9,3.7,4.7l2.3,2.5c1,1.1,3.1,3.5,3.3,3.6,0,0,0-.2,0-.6v-4.5c0-1.7,0-3.8-.4-4.5-.1-.2-.3-.3-.5-.4-.2,0-.4-.2-.6-.2h-.5c-.2-.2-.2-.7,0-.8.9,0,1.7,0,2.6,0s1.6,0,2.4,0c0,0,0,0,.1.1,0,0,0,.1,0,.2,0,0,0,.1,0,.2,0,0,0,.1-.1.2h-.5c-.4.2-.8.3-1,.6-.3.7-.3,2.7-.3,4.5v5.5Z"/>
    <path d="M68.9,15.9c3.6,0,5.2,4,5.2,7.5s-2.1,6.6-4.7,6.6c-3.9,0-5.3-4.3-5.3-7.5,0-4.9,2.5-6.5,4.8-6.5M69.2,15c-1.1,0-2.2.1-3.2.5-1,.4-1.9,1-2.7,1.7-.8.8-1.4,1.7-1.8,2.7-.4,1-.6,2.1-.6,3.2,0,4.1,3,7.7,8.2,7.7s8-3.4,8-7.9-2.7-8-8-8"/>
    <path d="M84.3,17.3c0-1,0-1-.6-1h-.7c-2.1,0-2.7.3-3.6,2.1-.1,0-.3,0-.4,0-.1,0-.3-.1-.3-.2.4-1.1.7-2.3.9-3.4,0,0,0,0,.1,0,0,0,0,0,.1,0,0,0,0,0,.1,0,0,0,0,0,.1,0,.1.6.4.6,2,.6h8.1c1.1,0,1.5,0,1.7-.6,0,0,.2,0,.3,0,0,0,.1,0,.2,0,0,0,0,0,.1,0-.3,1.2-.4,2.4-.3,3.6,0,0-.2.1-.3.2-.1,0-.3,0-.4,0-.3-1.8-.7-2.2-3.2-2.2h-.7c-.6,0-.6,0-.6,1v9.9c0,2.4.2,2.5,1.3,2.6h.8c0,.2.1.3.1.4,0,.1,0,.2-.2.3-1.3,0-2.4,0-3.4,0s-2.1,0-3.5,0c0,0-.1-.2-.2-.3,0-.1,0-.3.1-.4h1c1.1-.2,1.3-.3,1.3-2.7v-9.9Z"/>
    <path d="M99.2,17.3c0-1.1,0-1.1,1.2-1.1,2,0,3.2,1.6,3.2,3.4s-1,3.3-3.3,3.3-1.1,0-1.1-.8v-4.8ZM96.6,27.2c0,2.4-.2,2.5-1.3,2.6h-.5c0,.1,0,.2-.1.2,0,0,0,.1,0,.2,0,0,0,.1,0,.2,0,0,0,.1.1.1,1.1,0,2.1,0,3.1,0s2.1,0,3,0c0,0,.2-.2.2-.3,0-.1,0-.3-.1-.4h-.5c-1.1-.2-1.3-.3-1.3-2.7v-2.9c0-.5,0-.5.7-.5.3,0,.6,0,.8.1.3.1.5.4.6.6.5.9,1.2,2.2,1.8,3.1,1.4,2.1,2.6,3,4.8,3,.5,0,1,0,1.5-.1,0,0,0-.2,0-.2,0,0,0-.2,0-.2-.6,0-1.1-.3-1.6-.7-1.1-.9-2.2-2.8-4-5.9,0-.1-.1-.3,0-.4,1.1-.5,2.7-1.5,2.7-3.6,0-.7-.2-1.4-.5-2-.4-.6-.9-1.1-1.5-1.4-1.4-.6-2.8-.9-4.3-.8-1.9,0-3.8,0-5.3.2,0,0-.1.2-.1.3s0,.2.1.3h.6c1.1.2,1.1.5,1.1,2.7v8.4Z"/>
    <path d="M113.4,18.7c0-2.4-.2-2.5-1.3-2.7h-.4c-.2-.2-.1-.6,0-.7.4,0,.9,0,1.4,0h5.9c1.5,0,2.8,0,3.1,0,0,.4.2,2.2.4,3.2,0,.2-.5.2-.7,0-.4-1.3-.7-1.9-1.4-2.1-.6-.1-1.2-.2-1.8-.2h-1.5c-1,0-1,0-1,1.4v3.9c0,.6,0,.6.6.6h1.1c2,0,2.4,0,2.5-1l.2-.8c.2-.2.6-.2.7,0,0,.6,0,1.4,0,2.3s0,1.7,0,2.4c-.1,0-.2.1-.4.1s-.3,0-.4-.1l-.2-.9c-.2-1-.5-1-2.5-1h-1.1c-.5,0-.6,0-.6.6v2.9c0,1.2,0,2,.4,2.4.3.4.7.5,2.6.5,2.9,0,3.4-.6,4.2-2.5.1,0,.3-.1.4,0,.1,0,.3,0,.3.2-.2,1.1-.5,2.3-1,3.3-.5,0-1.2,0-2.2,0h-6c-1,0-2.4,0-3.4,0,0,0-.2-.2-.2-.3,0-.1,0-.3.1-.4h.8c1.1-.2,1.3-.3,1.3-2.7v-8.5Z"/>
    <path d="M136.5,18.2c0-1.1,0-1.6.2-1.7.6-.3,1.2-.4,1.8-.3,3.8,0,6.5,2.2,6.5,6.7s-1.8,6.8-5.9,6.8-2.6-1.2-2.6-3.4v-8ZM133.8,27.2c0,2.4-.2,2.5-1.3,2.6h-.5c-.2.2-.1.6,0,.7,1,0,2.1,0,2.9,0s.9,0,1.5,0,1.2,0,1.9,0c2,0,3.9-.3,5.7-1.1,1.2-.6,2.3-1.5,3-2.7.7-1.2,1.1-2.5,1.1-3.9,0-1.5-.4-3-1.2-4.2-.8-1.2-2.1-2.2-3.5-2.7-1.7-.6-3.6-.9-5.4-.8-2.2,0-4.1,0-5.7.2,0,0-.1.2-.1.3s0,.2.1.3h.5c1.1.2,1.1.5,1.1,2.7v8.4Z"/>
    <path d="M154.1,23.8c-.5,0-.6,0-.4-.7l1-2.7c.4-1.1.6-1.6.7-1.8h0c.3.6.5,1.2.6,1.8l1,2.7c.2.5,0,.6-.5.6h-2.4ZM156.8,24.9c.6,0,.7,0,.9.6l1.1,3.1c.3,1,.2,1.1-.6,1.2h-.5c0,.2,0,.3,0,.4,0,.1,0,.2.2.3.8,0,1.8,0,2.8,0s2.1,0,3,0c0,0,.1-.2.1-.3s0-.2-.1-.3h-.3c-1.2-.3-1.3-.4-1.8-2l-3.3-9.6c-.4-1-.7-2.1-1-3.1,0,0-.1-.1-.2-.1,0,0-.1,0-.2,0-.4.5-1,.9-1.6,1.1,0,.6-.2,1.2-.4,1.7l-3.1,8.1c-.5,1.2-.8,2.2-1.1,2.8-.3.8-.6,1-1.3,1.1h-.7c0,.2-.1.3-.1.4s0,.2.1.3c.8,0,1.5,0,2.3,0s1.7,0,2.4,0c0,0,.2-.2.2-.3s0-.3-.1-.4h-.7c-.9-.2-.9-.3-.5-1.6l.9-2.7c.2-.6.2-.6.8-.6h3.1Z"/>
    <path d="M184.5,29.9c.2,0,.2.6,0,.7-1,0-1.9,0-2.8,0s-2.1,0-3.1,0c-.2,0-.3-.5,0-.7h.6c.9-.2,1-.4,1-2v-9.4h0c-.6,1.3-.9,1.9-1.4,2.9l-2,4c-.8,1.6-1.9,4.1-2.3,5.2,0,0-.2,0-.3,0s-.2,0-.3,0c-.4-1.2-1.4-3.5-1.9-4.6l-2.1-4.4c-.4-.9-1-2.4-1.3-3.1h0c0,1.1,0,2.9-.1,3.9,0,1.4,0,3.4,0,5.3s0,1.9,1,2.1h.8c.2.3.2.7,0,.8-.9,0-1.6,0-2.4,0s-1.6,0-2.4,0c0,0-.2-.2-.2-.3,0-.1,0-.3.1-.4h.4c1.1-.2,1.3-.5,1.4-1.9.1-1.4.2-2.9.3-5.3,0-1.6.2-3.4.2-4.9s-.3-1.6-1.2-1.7h-.8c-.1-.3-.1-.7,0-.8.7,0,1.3,0,2.2,0s1.6,0,2.4,0c.2,1.3.6,2.6,1.3,3.8l2.5,5.3c.2.4.8,1.5,1.1,2.1.4-.7.7-1.3,1.2-2.4l2.1-4.4c.8-1.4,1.4-2.9,1.8-4.4.6,0,1.4,0,1.9,0,1,0,1.8,0,2.4,0,0,0,.1,0,.2.1,0,0,0,.1,0,.2,0,0,0,.1,0,.2,0,0,0,.1-.1.2h-.8c-1,.3-1.2.6-1.2,1.9,0,3.4,0,6.8.2,10.2,0,1.5.3,1.7,1,1.8h.7Z"/>
    <path d="M189.4,18.7c0-2.4-.2-2.5-1.3-2.7h-.4c-.2-.2-.1-.6,0-.7.4,0,.9,0,1.4,0h5.9c1.5,0,2.8,0,3.1,0,0,.4.2,2.2.4,3.2,0,.2-.5.2-.7,0-.4-1.3-.7-1.9-1.4-2.1-.6-.1-1.2-.2-1.8-.2h-1.5c-1,0-1,0-1,1.4v3.9c0,.6,0,.6.5.6h1.1c2,0,2.4,0,2.5-1l.2-.8c.1,0,.2-.1.4-.1s.3,0,.4.1c0,.6,0,1.4,0,2.3s0,1.7,0,2.4c-.1,0-.2.1-.4.1s-.3,0-.4-.1l-.2-.9c-.2-1-.5-1-2.5-1h-1.1c-.5,0-.5,0-.5.6v2.9c0,1.2,0,2,.4,2.4.3.4.7.5,2.6.5,2.9,0,3.4-.6,4.2-2.5.1,0,.3-.1.4,0,.1,0,.3,0,.3.2-.2,1.1-.5,2.3-1,3.3-.5,0-1.2,0-2.2,0h-6.1c-1,0-2.4,0-3.4,0,0,0-.1-.2-.2-.3,0-.1,0-.3.1-.4h.9c1.1-.2,1.3-.3,1.3-2.7v-8.5Z"/>
    <path d="M44.1,2.6c0-1.4-.1-1.5-1-1.7h-.3c-.1-.2-.1-.5,0-.6.7,0,1.4,0,2,0s1.3,0,2.1,0c.2,0,.2.4,0,.5h-.4c-.9.2-1,.3-1,1.7v2.9c0,2.1.7,3.5,2.7,3.5s2.7-1.4,2.7-3.4v-1.9c0-2.1-.1-2.6-1-2.7h-.4c0,0,0-.1,0-.2,0,0,0,0,0-.1,0,0,0,0,0-.1,0,0,0,0,0-.1.7,0,1.1,0,1.7,0s1.1,0,1.7,0c0,0,0,0,0,.1,0,0,0,0,0,.1s0,0,0,.1c0,0,0,0,0,.1h-.6c-.5.1-.7.7-.7,2.7v2.1c0,2.6-1.2,4-3.9,4-1.1,0-2.1-.2-2.9-.9-.6-.6-.9-1.6-.9-2.9v-3.3Z"/>
    <path d="M66.9,3.7c0-2.1-.1-2.6-.9-2.7h-.7c0,0,0-.1,0-.2,0,0,0,0,0-.1,0,0,0,0,0-.1,0,0,0,0,0-.1.8,0,1.2,0,1.9,0s1.1,0,1.7,0c0,0,0,0,0,.1,0,0,0,0,0,.1s0,0,0,.1c0,0,0,0,0,.1h-.6c-.5.1-.7.7-.7,2.7v3.5c0,.4,0,2.1,0,2.4,0,0-.1.1-.2.2,0,0-.2,0-.2,0-.2-.3-.6-.7-1.9-2.1l-3.1-3.4c-.8-.8-1.3-1.4-1.6-1.6,0,0,0,.2,0,.9v2.7c0,2.1.1,2.6.9,2.7h.7c0,0,0,.1,0,.2,0,0,0,0,0,.1,0,0,0,0,0,.1,0,0,0,0-.1.1-.8,0-1.2,0-1.8,0s-1,0-1.7,0c0,0,0,0,0-.1,0,0,0,0,0-.1s0,0,0-.1c0,0,0,0,0-.1h.6c.5-.1.7-.7.7-2.8v-3.7c0-.7,0-1-.4-1.3-.2-.1-.5-.2-.8-.3h-.3c0,0,0-.1,0-.2,0,0,0,0,0-.1,0,0,0,0,0-.1,0,0,0,0,.1-.1.8,0,1.4,0,1.8,0,.3,0,.6,0,.9,0,.6.9,1.3,1.8,2.1,2.5l2,2c.4.5,1.7,1.8,1.9,1.9.1,0,.1-.3.1-.8v-2.4Z"/>
    <path d="M75.8,2.6c0-1.4,0-1.5-1-1.7h-.4c-.1-.2-.1-.5,0-.6.8,0,1.4,0,2.1,0s1.3,0,2.1,0c.2,0,.2.4,0,.5h-.4c-.9.2-1,.3-1,1.7v4.6c0,1.4,0,1.5,1,1.7h.4c0,0,0,.1,0,.2,0,0,0,0,0,.1,0,0,0,0,0,.1,0,0,0,0,0,.1-.8,0-1.5,0-2.1,0s-1.3,0-2.1,0c0,0,0,0,0-.1,0,0,0,0,0-.1,0,0,0,0,0-.1,0,0,0,0,0-.1h.4c.9-.2,1-.3,1-1.7V2.6Z"/>
    <path d="M85.3,2.7c-.6-1.4-.7-1.5-1.2-1.6l-.7-.2s0,0,0-.1c0,0,0,0,0-.1s0,0,0-.1c0,0,0,0,0-.1.5,0,1.2,0,1.9,0s1.4,0,2,0c0,0,0,0,0,.1,0,0,0,0,0,.1s0,.1,0,.1c0,0,0,0,0,.1h-.4c-.5.1-.5.4,0,1.4l1,2.3c.5,1.2.9,2,1.2,2.6.4-.9.8-1.7,1.2-2.6.4-.9,1-2.4,1.2-3,.1-.4.1-.6-.5-.7h-.3c0-.1,0-.1,0-.2,0,0,0,0,0-.1,0,0,0-.1,0-.1,0,0,0,0,.1-.1.6,0,1.1,0,1.7,0,.5,0,1,0,1.5,0,0,0,0,0,.1,0,0,0,0,0,0,.1,0,0,0,.1,0,.2,0,0,0,0,0,.1h-.6c-.6.2-.7.4-1.4,1.8l-1.6,3.4c-.6,1.3-1.2,2.8-1.5,3.5,0,0-.2,0-.3,0,0,0-.2,0-.2,0-.2-.5-.4-1.2-.7-1.8l-2.3-5.2Z"/>
    <path d="M99.7,2.6c0-1.4,0-1.5-.9-1.7h-.3c-.2-.1-.1-.5,0-.6.3,0,.6,0,.9,0h3.9c.9,0,1.7,0,1.9,0,0,.2.1,1.2.2,2.1,0,0,0,0-.1,0,0,0,0,0-.1,0,0,0-.1,0-.2,0,0,0,0,0-.1,0,0-.4-.2-.7-.4-1-.3-.5-1.3-.5-1.8-.5h-.9c-.7,0-.7,0-.7.7v2.3c0,.4,0,.4.4.4h1c1.1,0,1.2-.2,1.4-.8v-.4c.1,0,.2,0,.2,0,0,0,0,0,.1,0s0,0,.1,0c0,0,0,0,.1,0,0,.6,0,1,0,1.5s0,.9,0,1.5c0,0,0,0-.1,0,0,0,0,0-.1,0,0,0,0,0-.1,0,0,0,0,0-.1,0v-.4c-.3-.6-.4-.8-1.5-.8h-1c-.4,0-.4,0-.4.5v1.5c0,.5,0,1,.2,1.5.2.2.6.3,1.7.3s2.1,0,2.7-1.7c0,0,0,0,.1,0,0,0,.1,0,.2,0,0,0,0,0,.1,0,0,0,0,0,.1.1,0,.8-.3,1.6-.6,2.3-.6,0-1.2,0-1.8,0h-3.5c-.7,0-1.3,0-2.3,0-.2,0-.2-.4,0-.5h.6c.9-.2,1-.3,1-1.7V2.6Z"/>
    <path d="M114.6,1.6c0-.5.2-.6.9-.6.3,0,.6,0,.8,0,.3,0,.5.2.7.4s.4.4.5.7c.1.3.2.5.2.8,0,1.4-.7,2-2.1,2s-1,0-1-.5V1.6ZM113,7.3c0,1.4,0,1.5-1,1.7h-.3c0,0,0,.1-.1.2,0,0,0,.1,0,.2,0,0,0,.1,0,.1,0,0,0,0,.1.1.7,0,1.4,0,2.1,0s1.3,0,2.2,0c0,0,0,0,0-.1,0,0,0,0,0-.1,0,0,0,0,0-.1,0,0,0,0,0-.1h-.5c-.9-.2-1-.3-1-1.7v-1.5c0-.3,0-.3.6-.3.2,0,.3,0,.5,0,.1,0,.3.1.4.3.4.7,1,1.6,1.5,2.2.9,1.2,1.7,1.6,2.9,1.6.3,0,.6,0,.9-.1,0,0,0-.1,0-.2s0-.1,0-.2c-.4,0-.8-.2-1.1-.4-1.1-.9-2-2.1-2.6-3.3,0,0,0,0,0-.2s0-.1,0-.2c.5-.1.9-.4,1.3-.8.3-.4.5-.9.5-1.4,0-2.2-2.1-2.5-4-2.5s-2.3,0-3.4.1c-.2,0-.2.5,0,.5h.6c.5.2.5.5.5,1.8v4.4Z"/>
    <path d="M128.1,5.2c-1-.5-1.8-1.3-1.8-2.5s1.2-2.6,3.3-2.6c.7,0,1.3.1,1.9.3.2.7.3,1.4.3,2.1,0,0,0,0-.1,0,0,0,0,0-.1,0,0,0-.1,0-.1,0,0,0,0,0-.1,0,0-.5-.3-.9-.6-1.2-.4-.3-.8-.5-1.3-.5-1.2,0-1.7.7-1.7,1.4s.6,1.2,1.4,1.6l1.3.7c.5.2.9.6,1.2,1.1.3.5.5,1,.5,1.6,0,1.6-1.3,2.6-3.4,2.6-.8,0-1.7-.2-2.4-.6-.3-.7-.5-1.4-.4-2.1,0,0,0,0,.1-.1,0,0,0,0,.2,0,0,0,.1,0,.2,0,0,0,0,0,.1.1.2.7,1.1,2.2,2.5,2.2s1.7-.5,1.7-1.5-.3-1.4-1.4-1.9l-.9-.5Z"/>
    <path d="M139,2.6c0-1.4,0-1.5-1-1.7h-.4c-.2-.2-.1-.5,0-.6.8,0,1.5,0,2.1,0s1.3,0,2.1,0c.2,0,.2.4,0,.5h-.4c-.9.2-1,.3-1,1.7v4.6c0,1.4,0,1.5,1,1.7h.4c0,0,0,.1,0,.2,0,0,0,0,0,.1s0,0,0,.1c0,0,0,0,0,.1-.8,0-1.5,0-2.1,0s-1.3,0-2.1,0c0,0,0,0,0-.1,0,0,0,0,0-.1s0,0,0-.1c0,0,0,0,0-.1h.4c.9-.2,1-.3,1-1.7V2.6Z"/>
    <path d="M150.8,1.6q0-.5-.4-.5h-.7c-1.3,0-1.8.1-2.3,1.6,0,0,0,0-.1,0,0,0,0,0-.1,0,0,0,0,0-.1,0,0,0,0,0,0-.1.2-.9.5-1.9.6-2.4,0,0,.1,0,.2,0s.1,0,.2,0c0,.4.3.4,1.1.4h5.8c.8,0,.9,0,1.1-.4,0,0,.1,0,.2,0,0,0,.1,0,.2.1-.2.8-.3,1.6-.2,2.4,0,0,0,0-.1,0,0,0,0,0-.1,0s0,0-.1,0c0,0,0,0-.1,0-.1-1.4-.7-1.5-1.9-1.5h-.7c-.4,0-.5,0-.5.5v5.7c0,1.4,0,1.6,1,1.7h.6c0,0,0,.1,0,.2,0,0,0,0,0,.1,0,0,0,0,0,.1,0,0,0,0,0,.1-.9,0-1.6,0-2.3,0s-1.4,0-2.3,0c0,0,0,0,0-.1,0,0,0,0,0-.1,0,0,0,0,0-.1,0,0,0,0,0-.1h.6c.9-.2,1-.3,1-1.7V1.6Z"/>
    <path d="M164.5,6.7c0-.6-.2-1.3-.6-1.8l-1.5-2.8c-.4-.8-.6-1-1.2-1.1h-.5c0-.1,0-.2,0-.2,0,0,0,0,0-.1,0,0,0,0,0-.1,0,0,0,0,0-.1.7,0,1.2,0,1.9,0s1.1,0,1.8,0c0,0,0,0,.1.1,0,0,0,0,0,.1s0,.1,0,.1c0,0,0,0-.1.1h-.3c-.5.2-.5.3-.2.9l.8,1.5c.3.6.6,1.2.9,1.7.3-.6.6-1.1,1-1.7l.8-1.5c.3-.6.4-.8-.1-.8h-.4c0,0,0-.1-.1-.2,0,0,0-.1,0-.2,0,0,0-.1,0-.1,0,0,0,0,.1-.1.6,0,1.1,0,1.6,0s.9,0,1.5,0c0,0,0,0,.1.1,0,0,0,0,0,.1,0,0,0,.1,0,.1,0,0,0,0,0,.1h-.5c-.6.2-.8.3-1.4,1.4l-1.3,2.1c-.8,1.2-.8,1.4-.8,2v1.1c0,1.2,0,1.4,1,1.5h.5c0,0,0,.1,0,.2,0,0,0,0,0,.1,0,0,0,0,0,.1s0,0,0,.1c-.9,0-1.6,0-2.2,0s-1.3,0-2.2,0c0,0,0,0,0-.1,0,0,0,0,0-.1,0,0,0,0,0-.1,0,0,0,0,0-.1h.5c.9-.2,1-.3,1-1.5v-.8Z"/>
    <path d="M182.2.7c2.3,0,3.3,2.2,3.3,4.5s-1.5,3.9-3.1,3.9c-2.4,0-3.4-2.3-3.4-4.4,0-2.9,1.6-3.9,3.1-3.9ZM182.4,0c-3,0-5.1,2.1-5.1,4.9s1.9,4.7,5.1,4.7,5-2.1,5-4.8-1.7-4.7-5-4.7"/>
    <path d="M192.7,2.6c0-1.4-.1-1.5-.9-1.7h-.2c-.1-.2-.1-.5,0-.6.3,0,.6,0,.9,0h3.9c.9,0,1.7,0,2,0,0,.2,0,1.2.1,2.1,0,0,0,0-.1.1,0,0-.1,0-.2,0s-.1,0-.2,0c0,0,0,0-.1-.1,0-.4-.2-.7-.4-1-.4-.5-1.3-.5-1.8-.5h-.8c-.6,0-.7,0-.7.7v2.4c0,.4,0,.4.4.4h1.1c1.1,0,1.2-.2,1.4-.8v-.4c.1,0,.2,0,.2,0,0,0,0,0,.1,0,0,0,0,0,.1,0,0,0,0,0,.1,0v2.9s0,0-.1,0c0,0,0,0-.1,0,0,0,0,0-.1,0,0,0,0,0-.1,0v-.4c-.3-.6-.4-.8-1.5-.8h-1.1c-.4,0-.4,0-.4.5v1.6c0,1.4,0,1.6,1,1.7h.6c0,.1,0,.1,0,.2,0,0,0,0,0,.1,0,0,0,0,0,.1,0,0,0,0,0,.1-1,0-1.7,0-2.4,0s-1.3,0-2.1,0c0,0,0,0,0-.1,0,0,0,0,0-.1,0,0,0,0,0-.1,0,0,0,0,0-.1h.4c.9-.2,1-.3,1-1.7V2.6Z"/>
  </g>
  <g id="name">
    <path d="M4.6,77.4H.9v-19.1h3.6c5,0,6.3,2.1,6.3,9.6s-1.3,9.6-6.3,9.6ZM2.6,75.9h2.2c3.9,0,4.5-2,4.5-8.1s-.6-8.1-4.5-8.1h-2.2v16.2ZM14,77.4v-13h1.6v13h-1.6ZM15.7,59.1v1.9h-1.9v-1.9h1.9ZM22.6,77.1c-3.2,0-4.1-2.4-4.1-6.5s.9-6.5,4.1-6.5,2.5.5,3.5,1.8v-1.6h1.5v2.8c0,0,0,11.4,0,11.4,0,2.4-1.2,3.9-4.4,3.9s-4.4-1.4-4.4-3.7l1.6-.2c0,1.7.5,2.6,2.7,2.6s2.9-1.1,2.9-2.5v-3.2c-.9,1.2-2,1.7-3.3,1.7ZM26,73.8v-6.4c-.9-1.1-1.8-1.8-3-1.8-2.3,0-2.7,1.9-2.7,5s.5,5.1,2.7,5.1,2.2-.7,3-1.9ZM30.8,77.4v-13h1.6v13h-1.6ZM32.5,59.1v1.9h-1.9v-1.9h1.9ZM35.1,65.8v-1.3h1.5v-3.4h1.6c0-.1,0,3.4,0,3.4h2.8v1.3h-2.8v9.1c0,1.2.6,1.4,1.4,1.4s1-.1,1.2-.2v1.4c-.2.1-.7.2-1.4.2-2,0-2.7-1-2.7-2.6v-9.3h-1.5ZM48.1,65.4c-1.8,0-2.4.8-2.4,2.5l-1.6-.2c0-2.3,1-3.6,4-3.6s3.9,1.2,4,3.6v9.6c0,0-1.3,0-1.3,0v-1.6c-1.1,1.3-2.4,1.8-3.9,1.8-2.4,0-3.3-1.6-3.3-3.8s1.6-3.8,4.7-4.2l2.3-.3v-1.8c0-1.3-.6-2.2-2.4-2.2ZM45.1,73.8c0,1.9.9,2.5,2.2,2.5s2.4-.6,3.2-1.7v-4l-2.1.3c-2.1.3-3.2.9-3.2,3ZM55.3,77.4v-19.6h1.6v19.6h-1.6ZM68.6,77.4h-3.6v-19.1h3.6c5,0,6.3,2.1,6.3,9.6s-1.3,9.6-6.3,9.6ZM66.6,75.9h2.2c3.9,0,4.5-2,4.5-8.1s-.6-8.1-4.5-8.1h-2.2v16.2ZM79.4,71.5c0,3.2.5,4.8,2.8,4.8s2.5-1,2.5-2.5l1.6.2c0,2.1-.8,3.6-4.1,3.6s-4.5-2.4-4.5-6.7.8-6.7,4.5-6.7,4.3,2.4,4.3,6.7v.6h-7.1ZM82.2,65.5c-2.2,0-2.8,1.4-2.8,4.7h5.4c0-3-.4-4.7-2.7-4.7ZM92.7,76.4c2.1,0,2.6-.9,2.6-2.4s-1-2.2-2.8-2.6c-2-.4-3.4-.9-3.4-3.6s1.3-3.6,3.9-3.6,3.7,1.3,3.7,3.6l-1.6.2c0-1.5-.2-2.5-2.1-2.5s-2.2.9-2.2,2.3.5,1.8,2.4,2.3c2.1.4,3.8,1,3.8,3.8s-1.2,3.8-4.4,3.8-3.9-1.4-3.9-3.6l1.6-.2c0,1.5.2,2.5,2.3,2.5ZM99.8,77.4v-13h1.6v13h-1.6ZM101.5,59.1v1.9h-1.9v-1.9h1.9ZM108.4,77.1c-3.2,0-4.1-2.4-4.1-6.5s.9-6.5,4.1-6.5,2.5.5,3.5,1.8v-1.6h1.5v2.8c0,0,0,11.4,0,11.4,0,2.4-1.2,3.9-4.4,3.9s-4.4-1.4-4.4-3.7l1.6-.2c0,1.7.5,2.6,2.7,2.6s2.9-1.1,2.9-2.5v-3.2c-.9,1.2-2,1.7-3.3,1.7ZM111.8,73.8v-6.4c-.9-1.1-1.8-1.8-3-1.8-2.3,0-2.7,1.9-2.7,5s.5,5.1,2.7,5.1,2.2-.7,3-1.9ZM117.9,64.4v1.6c.9-1,2.2-1.8,4.1-1.8s3.2,1.2,3.2,2.9v10.4h-1.6v-9.9c0-1.1-.6-1.9-2.1-1.9s-2.6.8-3.3,1.8v10h-1.6v-13c0,0,1.3,0,1.3,0ZM137,76.2c2.4,0,3.5-1,3.5-3.8s-.8-3.3-3.3-4c-2.3-.7-4.2-1.5-4.2-5.2s1.2-5.2,4.6-5.2,4.2,2.3,4.2,5.2l-1.6.2c0-2.3-.2-3.9-2.7-3.9s-3,1-3,3.7.7,3,3.1,3.6c2.6.7,4.4,1.5,4.4,5.6s-1.7,5.3-5.1,5.3-4.5-2.1-4.5-5.3l1.6-.2c0,2.6.4,4.1,2.9,4.1ZM148.8,75.3l2.9-10.8h1.7l-3.6,12.2-1.8,5.7h-1.8l1.8-5-3.7-12.8h1.7l2.9,10.8ZM158.8,76.4c2.1,0,2.6-.9,2.6-2.4s-1-2.2-2.8-2.6c-2-.4-3.4-.9-3.4-3.6s1.3-3.6,3.9-3.6,3.7,1.3,3.7,3.6l-1.6.2c0-1.5-.2-2.5-2.1-2.5s-2.2.9-2.2,2.3.5,1.8,2.4,2.3c2.1.4,3.8,1,3.8,3.8s-1.2,3.8-4.4,3.8-3.9-1.4-3.9-3.6l1.6-.2c0,1.5.2,2.5,2.3,2.5ZM165.3,65.8v-1.3h1.5v-3.4h1.6c0-.1,0,3.4,0,3.4h2.8v1.3h-2.8v9.1c0,1.2.6,1.4,1.4,1.4s1-.1,1.2-.2v1.4c-.2.1-.7.2-1.4.2-2,0-2.7-1-2.7-2.6v-9.3h-1.5ZM175.5,71.5c0,3.2.5,4.8,2.8,4.8s2.5-1,2.5-2.5l1.6.2c0,2.1-.8,3.6-4.1,3.6s-4.5-2.4-4.5-6.7.8-6.7,4.5-6.7,4.3,2.4,4.3,6.7v.6h-7.1ZM178.2,65.5c-2.2,0-2.8,1.4-2.8,4.7h5.4c0-3-.4-4.7-2.7-4.7ZM186.7,64.4v1.6c.9-1.1,2-1.8,3.7-1.8s2.5.9,2.8,1.8c.7-1.1,1.9-1.8,3.6-1.8s2.9,1.2,2.9,2.8v10.4h-1.6v-9.9c0-1-.4-1.9-1.9-1.9s-2.2.7-2.8,1.8v10h-1.6v-9.9c0-1-.4-1.9-1.9-1.9s-2.2.7-2.8,1.8v10h-1.6v-13c0,0,1.3,0,1.3,0Z"/>
  </g>
</svg>