<svg aria-hidden="true" style="position: absolute; width: 0; height: 0;" width="0" height="0" version="1.1" xmlns="http://www.w3.org/2000/svg">
<defs>
<symbol id="sticker-dna" viewBox="0 0 60 60">
	<path d="m54.866 13.669s-.002.002-.004.003l-8.53-8.53s.005-.005.007-.008c1.17-1.17 1.171-3.075.004-4.243-.568-.575-1.325-.891-2.132-.891-.808 0-1.565.317-2.128.888-5.094 5.094-5.675 10.569-5.365 15.742-5.174-.367-10.532.147-15.236 4.852-4.703 4.703-5.22 10.06-4.853 15.233-5.152-.312-10.638.263-15.738 5.362-.574.568-.892 1.325-.892 2.132s.316 1.565.888 2.131c.586.584 1.355.877 2.124.877s1.538-.293 2.123-.878c.003-.003.005-.005.008-.007l8.53 8.53s-.002.002-.003.004c-1.173 1.173-1.173 3.082 0 4.255.587.587 1.356.88 2.128.88s1.54-.293 2.127-.88c5.04-5.038 5.671-10.508 5.366-15.743 5.043.362 10.417-.036 15.235-4.854 4.815-4.815 5.216-10.184 4.853-15.239.686.04 1.374.069 2.066.069 4.593 0 9.298-1.051 13.677-5.431 1.173-1.173 1.173-3.082 0-4.255-1.174-1.175-3.081-1.173-4.255 0zm-1.516 1.319c-1.245.932-2.514 1.522-3.815 1.881l-6.4-6.399c.359-1.309.953-2.573 1.883-3.813l8.331 8.331zm-10.636-2.111 4.412 4.411c-1.404.119-2.847.055-4.339-.074-.129-1.519-.189-2.959-.073-4.337zm-20 24.414c-.155-1.678-.232-3.251-.1-4.738l4.844 4.844c-1.483.131-3.055.051-4.744-.105zm7.132-.335-6.791-6.791c.381-1.29 1.011-2.516 2.005-3.69l8.471 8.471c-1.176.999-2.399 1.628-3.685 2.01zm5.099-3.424-8.471-8.471c1.174-.994 2.4-1.624 3.69-2.005l6.793 6.793c-.383 1.285-1.012 2.507-2.012 3.683zm-2.394-10.918c1.488-.133 3.062-.055 4.74.1.157 1.687.239 3.26.107 4.747zm-9.656.282c4.426-4.425 9.479-4.613 13.979-4.25.063.667.133 1.33.202 1.982.002.021.004.041.007.062-4.706-.401-8.942-.187-12.762 3.633-3.819 3.819-4.035 8.057-3.633 12.762-.04-.004-.079-.008-.12-.013-.633-.068-1.276-.135-1.925-.197-.363-4.499-.175-9.552 4.251-13.979zm-16.238 22.124c1.24-.93 2.504-1.523 3.813-1.882l6.399 6.399c-.359 1.301-.95 2.57-1.881 3.815l-8.331-8.331zm10.558-2.231c.13 1.492.194 2.935.075 4.339l-4.412-4.411c1.377-.116 2.817-.057 4.337.072zm-.705 14.918c-.392.393-1.033.395-1.427 0-.394-.394-.394-1.033 0-1.427 4.232-4.232 4.519-8.703 4.153-13.295.242.026.484.052.731.078.431.046.867.092 1.306.136.355 5.528-.408 10.153-4.763 14.507zm20.601-20.597c-5.219 5.219-11.173 4.582-16.955 3.962-5.836-.634-11.351-1.23-16.435 3.854-.392.392-1.027.39-1.423-.004-.192-.19-.298-.442-.298-.711s.105-.521.302-.714c3.906-3.906 8.042-4.852 12.206-4.852 1.97 0 3.946.212 5.906.422 5.519.591 10.731 1.151 15.268-3.386 4.537-4.536 3.978-9.749 3.379-15.324-.647-6.048-1.317-12.302 4.441-18.06.188-.192.44-.298.709-.298s.521.105.714.302c.392.392.392 1.028 0 1.419-5.084 5.084-4.486 10.598-3.851 16.459.616 5.758 1.254 11.712-3.965 16.931zm20.597-20.601c-4.354 4.355-8.979 5.122-14.507 4.763-.045-.448-.092-.893-.139-1.333-.026-.238-.051-.47-.076-.704 4.591.366 9.063.08 13.295-4.153.392-.392 1.033-.393 1.427 0 .394.394.394 1.033 0 1.427z"/>
</symbol>
<symbol id="sticker-chalk-board" viewBox="0 0 60 60">
	<path d="m57 7h-54c-1.654 0-3 1.346-3 3v40c0 1.654 1.346 3 3 3h54c1.654 0 3-1.346 3-3v-40c0-1.654-1.346-3-3-3zm-2.414 4h-49.172l-2-2h53.172zm-7.586 36h-8v-2c0-.552.448-1 1-1h6c.552 0 1 .448 1 1zm-1-5h-6c-1.654 0-3 1.346-3 3v2h-31v-34h48v34h-5v-2c0-1.654-1.346-3-3-3zm-42-29.586v35.172l-2 2v-39.172zm1.414 36.586h49.172l2 2h-53.172zm50.586-1.414v-35.172l2-2v39.172z"/>
  <path d="m18.968 33.555c-.068-.53-.339-1.002-.763-1.328-.424-.327-.951-.465-1.478-.4l-1.982.256c-.53.068-1.003.339-1.329.763-.326.423-.468.947-.399 1.477l1.022 7.934c.068.53.339 1.002.763 1.328.354.273.777.417 1.216.417.087 0 .174-.006.262-.017l1.983-.255s0 0 0 0c1.094-.142 1.868-1.147 1.727-2.239l-1.022-7.934zm-2.944 8.445-1.023-7.934 1.983-.257 1.024 7.935z"/>
  <path d="m48.084 21.201c-.508-.208-1.094.035-1.305.546-1.396 3.412-3.89 6.093-6.842 7.356-3.2 1.371-6.997.949-9.447-1.051-1.105-.903-1.957-2.086-2.857-3.338-.461-.641-.938-1.303-1.456-1.932-1.199-1.458-3.687-3.845-6.824-3.519-1.97.209-3.797 1.533-4.769 3.453-.821 1.623-1.037 3.639-.606 5.675.114.54.638.885 1.186.772.54-.114.886-.645.771-1.185-.337-1.593-.183-3.141.435-4.359.658-1.302 1.912-2.23 3.194-2.367 2.217-.232 4.126 1.654 5.07 2.801.476.579.913 1.186 1.375 1.829.938 1.302 1.906 2.649 3.216 3.719 1.847 1.507 4.299 2.293 6.812 2.293 1.584 0 3.191-.312 4.688-.952 3.431-1.468 6.312-4.543 7.906-8.437.209-.511-.036-1.095-.547-1.304z"/>
</symbol>
<symbol id="sticker-earth" viewBox="0 0 60 60">
	<path d="m30 0c-16.542 0-30 13.458-30 30s13.458 30 30 30 30-13.458 30-30-13.458-30-30-30zm27.481 24.65-5.891 7.072c-.566.684-1.477.952-2.32.686l-14.948-4.72c-.778-.247-1.322-.986-1.322-1.797 0-1.042.848-1.89 1.89-1.89h4.61c1.209 0 2.339-.472 3.171-1.317.857-.843 1.329-1.974 1.329-3.183 0-2.481-2.019-4.5-4.5-4.5h-8.17c-.8 0-1.529-.406-1.95-1.087-.423-.683-.462-1.52-.105-2.235l4.701-9.391c11.802 1.685 21.25 10.753 23.506 22.363zm-41.459-18.896.722.8c.81.937 1.256 2.114 1.256 3.316v4.96c0 1.321-.533 2.608-1.467 3.533l-2.811 2.81c-.709.708-1.202 1.582-1.423 2.513l-.689 2.732c-.381 1.521-1.738 2.583-3.301 2.583h-6.284c.351-9.931 5.895-18.557 13.997-23.246zm12.499 43.763c-.399-2.038-2.2-3.518-4.281-3.518h-3.46c-1.533 0-2.78-1.247-2.78-2.78v-4.04c0-1.063.588-2.025 1.526-2.504l4.79-2.387c.791-.383 1.731-.385 2.505-.006l8.659 4.341c1.089.548 1.696 1.776 1.479 2.975l-3.143 16.135c-1.177.161-2.376.252-3.594.261zm7.404 7.846 2.999-15.394c.377-2.077-.67-4.188-2.547-5.132l-8.668-4.345c-1.331-.652-2.926-.654-4.276.002l-4.809 2.396c-1.619.828-2.625 2.472-2.625 4.29v4.04c0 2.636 2.145 4.78 4.78 4.78h3.46c1.128 0 2.103.8 2.319 1.906l1.611 8.027c-14.259-.925-25.637-12.566-26.145-26.934h6.284c2.482 0 4.638-1.685 5.24-4.095l.692-2.744c.139-.583.448-1.128.895-1.574l2.808-2.807c1.307-1.295 2.056-3.099 2.056-4.95v-4.96c0-1.682-.619-3.324-1.757-4.64l-.404-.448c3.68-1.782 7.806-2.782 12.161-2.782.621 0 1.236.028 1.848.068l-4.363 8.717c-.668 1.342-.595 2.906.195 4.182.788 1.273 2.153 2.034 3.65 2.034h8.17c1.379 0 2.5 1.122 2.5 2.5 0 .669-.26 1.293-.743 1.769-.464.472-1.088.731-1.757.731h-4.61c-2.145 0-3.89 1.745-3.89 3.89 0 1.7 1.092 3.188 2.719 3.704l14.949 4.72c.417.132.842.196 1.263.196 1.216 0 2.391-.535 3.198-1.51l4.739-5.689c.085.885.132 1.782.132 2.689 0 13.406-9.472 24.636-22.074 27.363z"/>
</symbol>
<symbol id="sticker-book" viewBox="0 0 60 60">
	<path d="m58 10h-2v-.403c0-.763-.422-1.445-1.102-1.782-1.713-.847-6.497-2.814-13.898-2.814-5.696 0-9.504 2.487-11 3.678-1.496-1.19-5.304-3.678-11-3.678-7.401 0-12.186 1.968-13.9 2.815-.678.336-1.1 1.019-1.1 1.781v.403h-2c-1.103 0-2 .897-2 2v38c0 1.103.897 2 2 2h24.127c.444 1.724 2.013 3 3.873 3s3.429-1.276 3.873-3h24.127c1.103 0 2-.897 2-2v-38c0-1.103-.897-2-2-2zm-4-.406v36.339c-2.585-1.507-7.59-3.933-13-3.933-4.699 0-8.109 1.692-10 2.952v-34.503c.994-.836 4.536-3.449 10-3.449 6.98 0 11.426 1.823 13 2.594zm-4.297 36.406h-16.55c1.764-.973 4.426-2 7.847-2 3.205 0 6.278.95 8.703 2zm-30.703-39c5.466 0 9.009 2.615 10 3.449v34.504c-1.891-1.261-5.301-2.952-10-2.952-5.41 0-10.415 2.426-13 3.933l-.014-36.325c1.588-.784 6.033-2.607 13.014-2.607zm7.847 39h-16.55c2.425-1.05 5.498-2 8.703-2 3.421 0 6.084 1.027 7.847 2zm31.153 4h-25c-.553 0-1 .447-1 1 0 1.103-.897 2-2 2s-2-.897-2-2c0-.553-.447-1-1-1h-25v-38h2v34.077c0 .688.371 1.329.969 1.67.296.169.619.252.941.253s.003 0 .003 0h.024 48.135s.01.002.014.002c.324 0 .648-.085.945-.255.598-.341.969-.981.969-1.67v-34.077h2z"/>
  <path d="m10.446 16.895c.038-.019 3.866-1.895 8.554-1.895 4.449 0 6.283 1.698 6.293 1.707.195.195.451.293.707.293s.512-.098.707-.293c.391-.391.391-1.023 0-1.414-.094-.094-2.354-2.293-7.707-2.293-5.177 0-9.275 2.02-9.447 2.105-.493.247-.693.847-.447 1.341.246.493.844.694 1.341.448z"/>
  <path d="m10.446 23.895c.038-.019 3.866-1.895 8.554-1.895 4.449 0 6.283 1.698 6.293 1.707.195.195.451.293.707.293s.512-.098.707-.293c.391-.391.391-1.023 0-1.414-.094-.094-2.354-2.293-7.707-2.293-5.177 0-9.275 2.02-9.447 2.105-.493.247-.693.847-.447 1.341.246.493.844.695 1.341.448z"/>
  <path d="m10.446 30.895c.038-.019 3.866-1.895 8.554-1.895 4.449 0 6.283 1.698 6.293 1.707.195.195.451.293.707.293s.512-.098.707-.293c.391-.391.391-1.023 0-1.414-.094-.094-2.354-2.293-7.707-2.293-5.177 0-9.275 2.02-9.447 2.105-.493.247-.693.847-.447 1.341.246.493.844.694 1.341.448z"/>
  <path d="m10.446 37.895c.038-.019 3.866-1.895 8.554-1.895 4.449 0 6.283 1.698 6.293 1.707.195.195.451.293.707.293s.512-.098.707-.293c.391-.391.391-1.023 0-1.414-.094-.094-2.354-2.293-7.707-2.293-5.177 0-9.275 2.02-9.447 2.105-.493.247-.693.847-.447 1.341.246.493.844.695 1.341.448z"/>
  <path d="m34.698 16.716c.019-.018 1.853-1.716 6.302-1.716 4.687 0 8.516 1.876 8.554 1.895.144.071.295.105.444.105.368 0 .722-.203.896-.554.246-.494.046-1.094-.447-1.341-.172-.086-4.271-2.105-9.447-2.105-5.353 0-7.613 2.199-7.707 2.293-.388.387-.387 1.01-.004 1.401.382.392 1.013.398 1.409.021z"/>
  <path d="m34.698 23.716c.019-.018 1.853-1.716 6.302-1.716 4.687 0 8.516 1.876 8.554 1.895.144.071.295.105.444.105.368 0 .722-.203.896-.554.246-.494.046-1.094-.447-1.341-.172-.086-4.271-2.105-9.447-2.105-5.353 0-7.613 2.199-7.707 2.293-.388.387-.387 1.01-.004 1.401.382.392 1.013.398 1.409.021z"/>
  <path d="m34.698 30.716c.019-.018 1.853-1.716 6.302-1.716 4.687 0 8.516 1.876 8.554 1.895.144.071.295.105.444.105.368 0 .722-.203.896-.554.246-.494.046-1.094-.447-1.341-.172-.086-4.271-2.105-9.447-2.105-5.353 0-7.613 2.199-7.707 2.293-.388.387-.387 1.01-.004 1.401.382.392 1.013.398 1.409.021z"/>
  <path d="m50.447 36.105c-.172-.086-4.271-2.105-9.447-2.105-5.353 0-7.613 2.199-7.707 2.293-.388.387-.387 1.01-.004 1.401.382.392 1.013.398 1.409.021.019-.018 1.853-1.716 6.302-1.716 4.687 0 8.516 1.876 8.554 1.895.144.071.295.105.444.105.368 0 .722-.203.896-.554.246-.494.046-1.094-.447-1.341z"/>
</symbol>
<symbol id="sticker-easel" viewBox="0 0 60 60">
	<path d="m33 0h-6c-1.103 0-2 .897-2 2v1h-16c-1.103 0-2 .897-2 2v29c0 1.103.897 2 2 2h2v2c0 1.103.897 2 2 2h4.396l-4.331 17.321c-.163.648-.02 1.323.392 1.85.411.527 1.03.829 1.698.829h1.943c.99 0 1.85-.671 2.09-1.633l4.592-18.367h3.22v14c0 1.103.897 2 2 2h2c1.103 0 2-.897 2-2v-14h3.22l4.592 18.368c.24.961 1.1 1.632 2.09 1.632h1.943c.668 0 1.287-.302 1.698-.829.411-.526.555-1.201.392-1.849l-4.331-17.322h4.396c1.103 0 2-.897 2-2v-2h2c1.103 0 2-.897 2-2v-29c0-1.103-.897-2-2-2h-16v-1c0-1.103-.897-2-2-2zm-6 2h6l.002 2h-6.002zm-9.751 55.882c-.018.069-.079.118-.15.118h-1.943c-.05 0-.091-.021-.122-.06-.03-.04-.04-.084-.028-.134l4.452-17.807h2.263l-4.471 17.882zm13.751-3.882h-2v-14h2zm13.995 3.808c.012.049.002.093-.028.133-.031.039-.072.06-.122.06h-1.943c-.071 0-.133-.049-.15-.117l-4.471-17.883h2.263l4.452 17.808zm2.005-19.808h-34v-2h34zm4-4h-42v-29h16.278c.347.595.985 1 1.722 1h6c.737 0 1.375-.405 1.722-1h16.278z"/>
  <path d="m29.202 13.499c-1.555 2.057-2.244 4.66-2.854 6.956-1.107 4.18-1.902 6.545-5.349 6.545-2.981 0-5.012-1.938-6.19-3.563-.323-.446-.948-.548-1.396-.223-.447.324-.547.949-.223 1.396 2.082 2.872 4.782 4.39 7.81 4.39 5.152 0 6.235-4.083 7.282-8.032.589-2.222 1.198-4.52 2.516-6.262 1.353-1.789 4.167-2.861 7.002-2.687 1.819.117 5.191.872 7.332 4.617.273.479.884.646 1.364.372.479-.274.646-.885.372-1.364-1.903-3.329-5.162-5.378-8.94-5.62-3.528-.229-6.958 1.138-8.726 3.475z"/>
</symbol>
<symbol id="sticker-translate" viewBox="0 0 60 60">
	<path d="m40 20c0-11.028-8.972-20-20-20s-20 8.972-20 20c0 3.793 1.062 7.464 3.078 10.65l-1.989 5.952c-.205.635-.051 1.33.402 1.815.452.483 1.132.68 1.781.522l6.649-1.66c3.05 1.78 6.525 2.72 10.078 2.72 0 11.028 8.972 20 20 20 3.553 0 7.028-.939 10.078-2.72l6.649 1.659c.646.164 1.33-.038 1.781-.521.453-.485.607-1.181.399-1.825l-1.986-5.942c2.016-3.187 3.078-6.857 3.078-10.65 0-11.028-8.972-20-20-20zm-29.397 15.357c-.158-.098-.34-.147-.522-.147-.081 0-.162.01-.242.029l-6.748 1.685 2.038-6.097c.099-.294.055-.615-.116-.873-1.971-2.95-3.012-6.393-3.012-9.954-.001-9.925 8.074-18 17.999-18s18 8.075 18 18-8.075 18-18 18c-3.326 0-6.576-.914-9.397-2.643zm34.397 3.643h-10v-4c0-2.757 2.243-5 5-5s5 2.243 5 5zm9.988 10.954c-.171.258-.215.579-.116.873l2.038 6.097-6.748-1.685c-.261-.065-.537-.023-.765.118-2.821 1.729-6.071 2.643-9.397 2.643-9.925 0-18-8.075-18-18 0-.034.002-.068.002-.101 4.179-.417 7.975-2.136 10.998-4.731v13.832c0 .553.447 1 1 1s1-.447 1-1v-8h10v8c0 .553.447 1 1 1s1-.447 1-1v-14c0-3.859-3.141-7-7-7-.623 0-1.224.09-1.799.243.882-1.939 1.477-4.033 1.697-6.241.034 0 .068-.002.101-.002 9.925 0 18 8.075 18 18 0 3.562-1.041 7.004-3.012 9.954z"/>
  <path d="m24.553 29.895c.144.071.296.105.445.105.366 0 .719-.202.894-.551.248-.492.05-1.094-.442-1.343-.159-.08-2.163-1.138-4.192-3.549 1.629-2.297 3.085-5.429 3.617-9.557h1.125c.553 0 1-.447 1-1s-.447-1-1-1h-5v-2c0-.553-.447-1-1-1s-1 .447-1 1v2h-5c-.553 0-1 .447-1 1s.447 1 1 1h1.125c.532 4.128 1.988 7.26 3.617 9.557-2.023 2.406-4.023 3.464-4.191 3.549-.493.247-.693.847-.446 1.341.176.351.528.553.896.553.15 0 .303-.034.446-.105.174-.087 2.325-1.198 4.553-3.729 2.228 2.532 4.378 3.642 4.553 3.729zm-7.412-14.895h5.719c-.466 3.314-1.578 5.913-2.86 7.875-1.281-1.962-2.393-4.562-2.859-7.875z"/>
</symbol>
<symbol id="sticker-globe" viewBox="0 0 60 60">
	<path d="m52.934 22.694c.705-9.433-4.308-18.241-12.778-22.444-.597-.29-1.301-.327-1.928-.104-.634.227-1.137.687-1.418 1.294l-.729 1.577c-1.912-.648-3.953-1.016-6.081-1.016-10.477 0-19 8.523-19 19 0 6.914 3.724 12.958 9.259 16.283l-.707 1.54c-.281.611-.304 1.294-.062 1.921.243.632.721 1.127 1.345 1.395 1.954.842 3.994 1.393 6.096 1.664-.411 5.992-2.995 9.169-8.759 10.848-1.278.371-2.171 1.556-2.171 2.88v.47c0 1.103.897 2 2 2h24c1.103 0 2-.897 2-2v-.47c0-1.324-.893-2.509-2.171-2.88-5.78-1.681-8.364-4.867-8.761-10.877 10.638-1.448 19.061-10.248 19.866-21.079zm-17.434-11.694h-4.64c-.413 0-.631-.27-.705-.386-.075-.116-.229-.429-.055-.811l2.535-5.578c7.177 1.125 12.867 6.74 14.099 13.882l-3.359 3.926c-.424.487-1.093.672-1.7.468l-9.165-3.048c-.306-.104-.511-.39-.511-.713 0-.408.332-.74.74-.74h2.76c.925 0 1.828-.373 2.476-1.022.651-.649 1.024-1.553 1.024-2.478 0-1.93-1.57-3.5-3.5-3.5zm-14.255-4.545.342.409c.271.33.413.723.413 1.136v3.86c0 .468-.184.909-.517 1.242l-1.601 1.601c-.524.524-.889 1.21-1.023 1.92l-.439 2.191c-.137.688-.746 1.186-1.45 1.186h-3.919c.337-5.749 3.534-10.729 8.195-13.545zm-8.195 15.545h3.919c1.655 0 3.09-1.176 3.411-2.793l.441-2.2c.062-.33.231-.646.475-.89l1.601-1.601c.711-.711 1.103-1.654 1.103-2.656v-3.86c0-.867-.308-1.721-.871-2.41l-.075-.09c2.124-.956 4.47-1.5 6.946-1.5.179 0 .352.021.529.027l-2.248 4.946c-.406.885-.335 1.902.19 2.721.524.818 1.417 1.307 2.389 1.307h4.64c.827 0 1.5.673 1.5 1.5 0 .397-.159.784-.438 1.063-.277.277-.664.437-1.062.437h-2.76c-1.511 0-2.74 1.229-2.74 2.74 0 1.181.751 2.229 1.875 2.609l9.169 3.049c.372.125.754.185 1.133.185 1.019 0 2.01-.438 2.713-1.242l2.104-2.46c0 .04.006.079.006.119 0 7.765-5.238 14.315-12.362 16.341l1.917-8.295c.347-1.502-.354-3.076-1.708-3.83l-6.022-3.351c-1.139-.631-2.538-.604-3.648.067l-2.545 1.527c-1.006.595-1.631 1.694-1.631 2.87v2.33c0 1.842 1.498 3.34 3.34 3.34h1.49c.796 0 1.495.561 1.664 1.338l1.022 4.587c-8.35-.727-14.973-7.511-15.466-15.925zm17.524 15.971-1.128-5.063c-.366-1.686-1.888-2.908-3.617-2.908h-1.49c-.739 0-1.34-.601-1.34-1.34v-2.33c0-.479.242-.909.654-1.152l2.554-1.532c.502-.303 1.132-.315 1.646-.031l6.021 3.35c.578.322.88.993.731 1.632l-2.126 9.203c-.625.092-1.259.151-1.904.173zm10.695 18.599c.437.127.729.513.729.96v.47h-24v-.47c0-.447.293-.833.729-.96 6.533-1.903 9.705-5.812 10.192-12.594.338.014.676.025 1.016.025.377 0 .759-.02 1.14-.037.476 6.791 3.649 10.704 10.193 12.607zm-9.857-14.618c-3.431.223-6.725-.331-9.789-1.651-.169-.072-.24-.203-.269-.275-.026-.069-.06-.209.013-.367l.66-1.435c2.428 1.129 5.123 1.777 7.972 1.777 10.477 0 19-8.523 19-19 0-7.64-4.542-14.223-11.059-17.238l.685-1.484c.072-.157.202-.224.273-.249.075-.025.223-.058.374.016 7.73 3.836 12.31 11.883 11.666 20.501-.771 10.359-9.166 18.702-19.526 19.406z"/>
</symbol>
<symbol id="sticker-backpack" viewBox="0 0 60 60">
	<path d="m17 29c-1.654 0-3 1.346-3 3v20c0 1.654 1.346 3 3 3h26c1.654 0 3-1.346 3-3v-20c0-1.654-1.346-3-3-3zm26 24h-26c-.552 0-1-.448-1-1v-13.184c.314.112.648.184 1 .184h17.184c-.112.314-.184.648-.184 1v3c0 1.654 1.346 3 3 3s3-1.346 3-3v-3c0-.352-.072-.686-.184-1h3.184c.352 0 .686-.072 1-.184v13.184c0 .552-.448 1-1 1zm-5-13v3c0 .552-.448 1-1 1s-1-.448-1-1v-3c0-.552.448-1 1-1s1 .448 1 1zm6-8v4c0 .552-.448 1-1 1h-26c-.552 0-1-.448-1-1v-4c0-.552.448-1 1-1h26c.552 0 1 .448 1 1z"/>
  <path d="m57 30h-6v-3c0-8.367-5.444-15.474-12.97-18.003l-.848-3.385c-.392-1.6-1.325-3.035-2.625-4.04-1.317-1.028-2.892-1.572-4.557-1.572-3.405 0-6.357 2.306-7.18 5.606l-.85 3.391c-7.526 2.528-12.97 9.635-12.97 18.003v3h-6c-1.654 0-3 1.346-3 3v3c0 .883.391 1.67 1 2.22v16.78c0 1.654 1.346 3 3 3h5.556c.694 1.19 1.97 2 3.444 2h34c1.474 0 2.75-.81 3.444-2h5.556c1.654 0 3-1.346 3-3v-16.78c.609-.549 1-1.337 1-2.22v-3c0-1.654-1.346-3-3-3zm0 2c.552 0 1 .448 1 1v3c0 .552-.448 1-1 1h-6v-5zm-32.239-25.908c.6-2.409 2.755-4.092 5.239-4.092 1.214 0 2.363.397 3.329 1.151.947.732 1.626 1.775 1.911 2.941l.575 2.293c-.699-.143-1.414-.237-2.138-.3l-.377-1.51c-.384-1.517-1.74-2.575-3.3-2.575s-2.916 1.059-3.3 2.578l-.377 1.507c-.724.064-1.44.157-2.138.3zm6.834 1.908h-3.189l.234-.935c.158-.627.718-1.065 1.36-1.065s1.202.438 1.36 1.062l.234.938zm-29.595 25c0-.552.448-1 1-1h6v5h-6c-.552 0-1-.448-1-1zm2 23c-.552 0-1-.448-1-1v-16h6v17zm45 0c0 1.103-.897 2-2 2h-34c-1.103 0-2-.897-2-2v-29c0-9.374 7.626-17 17-17h4c9.374 0 17 7.626 17 17zm8-1c0 .552-.448 1-1 1h-5v-17h6z"/>
</symbol>
<symbol id="sticker-microscope" viewBox="0 0 60 60">
	<path d="m32 17c-1.654 0-3 1.346-3 3s1.346 3 3 3 3-1.346 3-3-1.346-3-3-3zm0 4c-.552 0-1-.449-1-1s.448-1 1-1 1 .449 1 1-.448 1-1 1z"/>
  <path d="m12 43h12v11h-6.999c-.762 0-1.447.423-1.789 1.105l-1 2.001c-.312.624-.279 1.352.088 1.945s1.003.948 1.701.948h31.998c.698 0 1.334-.354 1.701-.948s.4-1.321.088-1.946l-1.001-2.001c-.341-.682-1.026-1.104-1.788-1.104h-2.999v-8.937l2.164-2.345c2.474-2.678 3.836-6.161 3.836-9.809 0-5.796-3.444-11.02-8.777-13.31l-2.365-1.01c-.406-1.978-1.654-3.649-3.346-4.636l1.341-3.139c.619-1.483-.049-3.137-1.519-3.764l-.461-.197 1.263-2.952c.198-.456.204-.96.017-1.421-.185-.452-.533-.808-.988-1.006l-3.097-1.321c-.933-.403-2.02.025-2.428.963l-1.263 2.958-.454-.194c-.715-.305-1.503-.313-2.218-.021-.71.289-1.263.838-1.555 1.539l-7.812 18.285c-.481 1.144-.157 2.425.702 3.226l-.492 1.149c-.315.737-.325 1.552-.026 2.296.298.744.868 1.327 1.609 1.644.383.163.78.24 1.172.24.334 0 .661-.062.973-.169.313.672.846 1.204 1.532 1.496.378.161.777.242 1.177.242.378 0 .757-.072 1.119-.219.743-.299 1.326-.87 1.64-1.608l.488-1.15c.049.003.098.014.147.014 1.12 0 2.191-.654 2.661-1.741l1.019-2.383c.617.179 1.267.28 1.941.28 1.357 0 2.621-.395 3.695-1.066l2.38 1.025c2.385 1.023 3.925 3.359 3.925 5.951 0 1.505-.522 2.94-1.469 4.09h-28.531c-1.103 0-2 .897-2 2v2c0 1.103.897 2 2 2zm31 13h3.999l1 2h-31.998l1-2h7.999c.553 0 1-.447 1-1v-12h9.016l-1.931 2.093c-2.32.432-4.085 2.464-4.085 4.907 0 2.757 2.243 5 5 5 2.572 0 4.672-1.96 4.945-4.46l3.055-3.31v7.77c0 .553.447 1 1 1zm-9-9c1.654 0 3 1.346 3 3s-1.346 3-3 3-3-1.346-3-3 1.346-3 3-3zm-2.584-44.951 2.821 1.204-1.203 2.814-2.818-1.206zm-12.504 28.106c-.245-.104-.436-.299-.535-.546-.099-.248-.096-.519.009-.764l.422-.985 1.84.786-.105.247-.314.735s0 .003-.001.004c-.217.505-.802.743-1.314.524zm4.991 1.042c-.104.246-.299.436-.547.535-.247.101-.518.098-.765-.008-.245-.104-.436-.299-.534-.546-.099-.246-.096-.515.007-.758 0 0 0-.002.001-.002l.422-.986 1.833.784-.417.982zm3.299-2.884c-.195.45-.703.651-1.149.467l-7.417-3.169c-.438-.189-.643-.707-.456-1.148l7.813-18.289c.089-.213.254-.377.466-.463.218-.088.458-.085.678.008l7.411 3.171c.448.191.649.698.462 1.147l-1.355 3.169c-.532-.13-1.084-.206-1.655-.206-3.859 0-7 3.14-7 7 0 2.474 1.294 4.648 3.237 5.893l-1.035 2.421zm-.202-8.313c0-2.757 2.243-5 5-5s5 2.243 5 5-2.243 5-5 5-5-2.243-5-5zm17 12.91c0-3.393-2.016-6.45-5.135-7.789l-1.492-.643c.852-1.021 1.417-2.286 1.577-3.675l1.485.635c4.595 1.973 7.564 6.476 7.564 11.471 0 3.144-1.174 6.145-3.305 8.451l-6.122 6.633c-.559-1.268-1.633-2.245-2.952-2.701l6.132-6.644c1.449-1.562 2.247-3.6 2.247-5.739zm-32 6.09h26.708l-1.846 2h-24.862z"/>
</symbol>
<symbol id="sticker-cap" viewBox="0 0 60 60">
	<path d="m58.95 22.363-28.163-13.188c-.5-.233-1.073-.233-1.575 0l-28.163 13.188c-.647.303-1.049.931-1.049 1.637 0 .06.019.114.025.173h-.025v3.017c0 .979.569 1.886 1.451 2.311l2.549 1.231v6.453c-1.161.414-2 1.514-2 2.816 0 .639.204 1.228.545 1.715l-1.265 5.038c-.138.542-.02 1.106.323 1.549.345.443.865.698 1.426.698h3.94c.561 0 1.081-.255 1.426-.698.343-.442.461-1.007.324-1.545l-1.265-5.042c.341-.487.545-1.077.545-1.715 0-1.302-.839-2.402-2-2.816v-5.487l5 2.414v12.029c0 1.989.911 3.865 2.44 5.021 2.336 1.752 7.105 3.84 16.56 3.84s14.224-2.088 16.563-3.842c1.525-1.154 2.437-3.03 2.437-5.019v-12.029l9.55-4.61c.881-.425 1.45-1.332 1.45-2.311v-3.017h-.025c.006-.058.025-.113.025-.173 0-.707-.402-1.334-1.05-1.637zm-53.95 16.637c.551 0 1 .448 1 1s-.449 1-1 1-1-.448-1-1 .449-1 1-1zm-1.719 8 1.026-4.089c.224.053.454.089.693.089s.47-.036.693-.089l1.026 4.089zm26.719-35.985 27.73 12.985-27.73 12.985-21.263-9.957 15.708-1.494c.886 1.46 3.011 2.466 5.556 2.466 3.364 0 6-1.757 6-4s-2.636-4-6-4c-3.143 0-5.648 1.533-5.965 3.564l-18.864 1.795-2.902-1.359 27.731-12.985zm-4 12.985c0-.944 1.71-2 4-2s4 1.056 4 2-1.711 2-4 2-4-1.056-4-2zm-23.68 3.699c-.194-.093-.32-.293-.32-.509v-1.108l2 .936v1.492zm44.68 18.44c0 1.365-.614 2.646-1.64 3.421-2.093 1.569-6.457 3.439-15.36 3.439s-13.268-1.87-15.357-3.438c-1.029-.777-1.643-2.058-1.643-3.423v-11.063l15.886 7.67c.354.17.734.255 1.114.255s.761-.085 1.116-.256l15.885-7.669v11.063zm10.681-18.44-27.434 13.244c-.158.075-.336.074-.493 0l-23.754-11.467v-1.521l23.212 10.869c.25.118.52.177.788.177s.538-.059.787-.177l27.212-12.742v1.108c0 .216-.125.416-.319.51z"/>
</symbol>
<symbol id="sticker-computer" viewBox="0 0 60 60">
	<path d="m56 0h-52c-2.206 0-4 1.794-4 4v40c0 2.206 1.794 4 4 4h18v3.852c0 .384-.19.74-.51.953l-4.464 2.977c-.643.428-1.026 1.144-1.026 1.916 0 1.27 1.033 2.303 2.303 2.303h23.395c1.27 0 2.303-1.033 2.303-2.303 0-.772-.384-1.488-1.025-1.916l-4.465-2.977c-.319-.213-.51-.569-.51-.953v-3.852h18c2.206 0 4-1.794 4-4v-40c-.001-2.206-1.795-4-4.001-4zm-52 2h52c1.103 0 2 .897 2 2v36h-56v-36c0-1.103.897-2 2-2zm33.4 52.469 4.466 2.977c.084.057.134.15.134.252 0 .167-.136.303-.303.303h-23.395c-.167 0-.303-.136-.303-.303 0-.102.05-.195.135-.252l4.465-2.977c.877-.584 1.4-1.562 1.4-2.617v-3.852h12v3.852c0 1.055.523 2.033 1.4 2.617zm18.6-8.469h-52c-1.103 0-2-.897-2-2v-2h56v2c0 1.103-.897 2-2 2z"/>
  <path d="m5 38h50c.553 0 1-.447 1-1v-32c0-.553-.447-1-1-1h-50c-.553 0-1 .447-1 1v32c0 .553.447 1 1 1zm1-32h48v30h-48z"/>
  <path d="m10 14c.256 0 .512-.098.707-.293l3-3c.391-.391.391-1.023 0-1.414s-1.023-.391-1.414 0l-3 3c-.391.391-.391 1.023 0 1.414.195.195.451.293.707.293z"/>
  <path d="m18.293 9.293-9 9c-.391.391-.391 1.023 0 1.414.195.195.451.293.707.293s.512-.098.707-.293l9-9c.391-.391.391-1.023 0-1.414s-1.023-.391-1.414 0z"/>
</symbol>
<symbol id="sticker-calculator" viewBox="0 0 60 60">
	<path d="m11 60h38c2.206 0 4-1.794 4-4v-52c0-2.206-1.794-4-4-4h-38c-2.206 0-4 1.794-4 4v52c0 2.206 1.794 4 4 4zm-2-56c0-1.103.897-2 2-2h38c1.103 0 2 .897 2 2v52c0 1.103-.897 2-2 2h-38c-1.103 0-2-.897-2-2z"/>
  <path d="m14 24h32c1.654 0 3-1.346 3-3v-14c0-1.654-1.346-3-3-3h-32c-1.654 0-3 1.346-3 3v14c0 1.654 1.346 3 3 3zm-1-17c0-.551.448-1 1-1h32c.552 0 1 .449 1 1v14c0 .551-.448 1-1 1h-32c-.552 0-1-.449-1-1z"/>
  <path d="m19 26h-4c-1.654 0-3 1.346-3 3v2c0 1.654 1.346 3 3 3h4c1.654 0 3-1.346 3-3v-2c0-1.654-1.346-3-3-3zm1 5c0 .552-.448 1-1 1h-4c-.552 0-1-.448-1-1v-2c0-.551.448-1 1-1h4c.552 0 1 .449 1 1z"/>
  <path d="m32 26h-4c-1.654 0-3 1.346-3 3v2c0 1.654 1.346 3 3 3h4c1.654 0 3-1.346 3-3v-2c0-1.654-1.346-3-3-3zm1 5c0 .552-.448 1-1 1h-4c-.552 0-1-.448-1-1v-2c0-.551.448-1 1-1h4c.552 0 1 .449 1 1z"/>
  <path d="m45 26h-4c-1.654 0-3 1.346-3 3v2c0 1.654 1.346 3 3 3h4c1.654 0 3-1.346 3-3v-2c0-1.654-1.346-3-3-3zm1 5c0 .552-.448 1-1 1h-4c-.552 0-1-.448-1-1v-2c0-.551.448-1 1-1h4c.552 0 1 .449 1 1z"/>
  <path d="m19 37h-4c-1.654 0-3 1.346-3 3v2c0 1.654 1.346 3 3 3h4c1.654 0 3-1.346 3-3v-2c0-1.654-1.346-3-3-3zm1 5c0 .552-.448 1-1 1h-4c-.552 0-1-.448-1-1v-2c0-.552.448-1 1-1h4c.552 0 1 .448 1 1z"/>
  <path d="m32 37h-4c-1.654 0-3 1.346-3 3v2c0 1.654 1.346 3 3 3h4c1.654 0 3-1.346 3-3v-2c0-1.654-1.346-3-3-3zm1 5c0 .552-.448 1-1 1h-4c-.552 0-1-.448-1-1v-2c0-.552.448-1 1-1h4c.552 0 1 .448 1 1z"/>
  <path d="m45 37h-4c-1.654 0-3 1.346-3 3v13c0 1.654 1.346 3 3 3h4c1.654 0 3-1.346 3-3v-13c0-1.654-1.346-3-3-3zm1 16c0 .552-.448 1-1 1h-4c-.552 0-1-.448-1-1v-13c0-.552.448-1 1-1h4c.552 0 1 .448 1 1z"/>
  <path d="m19 48h-4c-1.654 0-3 1.346-3 3v2c0 1.654 1.346 3 3 3h4c1.654 0 3-1.346 3-3v-2c0-1.654-1.346-3-3-3zm1 5c0 .552-.448 1-1 1h-4c-.552 0-1-.448-1-1v-2c0-.552.448-1 1-1h4c.552 0 1 .448 1 1z"/>
  <path d="m32 48h-4c-1.654 0-3 1.346-3 3v2c0 1.654 1.346 3 3 3h4c1.654 0 3-1.346 3-3v-2c0-1.654-1.346-3-3-3zm1 5c0 .552-.448 1-1 1h-4c-.552 0-1-.448-1-1v-2c0-.552.448-1 1-1h4c.552 0 1 .448 1 1z"/>
  <path d="m21.443 14.203c-1.088.789-2.443 1.771-2.443 3.797 0 .552.447 1 1 1h4c.553 0 1-.448 1-1s-.447-1-1-1h-2.705c.271-.399.721-.741 1.322-1.178 1.062-.769 2.383-1.727 2.383-3.662 0-1.802-1.29-3.16-3-3.16-1.496 0-2.505 1.048-2.864 1.667-.275.473-.115 1.073.354 1.354.47.281 1.081.126 1.368-.339.017-.028.43-.683 1.142-.683.69 0 1 .583 1 1.16 0 .873-.563 1.323-1.557 2.043z"/>
  <path d="m37.443 14.203c-1.088.789-2.443 1.771-2.443 3.797 0 .552.447 1 1 1h4c.553 0 1-.448 1-1s-.447-1-1-1h-2.705c.271-.399.721-.741 1.322-1.178 1.062-.769 2.383-1.727 2.383-3.662 0-1.802-1.29-3.16-3-3.16-1.496 0-2.505 1.048-2.864 1.667-.275.473-.115 1.073.354 1.354.47.281 1.081.126 1.368-.339.017-.028.43-.683 1.142-.683.69 0 1 .583 1 1.16 0 .873-.563 1.323-1.557 2.043z"/>
  <path d="m28 16h1v1c0 .552.447 1 1 1s1-.448 1-1v-1h1c.553 0 1-.448 1-1s-.447-1-1-1h-1v-1c0-.552-.447-1-1-1s-1 .448-1 1v1h-1c-.553 0-1 .448-1 1s.447 1 1 1z"/>
</symbol>
<symbol id="sticker-trophy" viewBox="0 0 60 60">
	<path d="m36 33v-2.816c1.101-.746 2.182-1.779 3.178-3.184h.822c7.72 0 14-6.28 14-14v-4c0-1.654-1.346-3-3-3h-7.012c0-.091.003-.182.003-.274.599-.346 1.009-.986 1.009-1.726v-2c0-1.103-.897-2-2-2h-26c-1.103 0-2 .897-2 2v2c0 .74.409 1.381 1.009 1.726 0 .092.002.182.003.274h-7.012c-1.654 0-3 1.346-3 3v4c0 7.72 6.28 14 14 14h.822c.996 1.405 2.077 2.438 3.178 3.184v2.816c0 1.302.839 2.402 2 2.816v1.184c0 3.423-2.208 4.982-4.061 5.688-1.178.449-1.939 1.538-1.939 2.773v.539c-1.103 0-2 .897-2 2v10c0 1.103.897 2 2 2h20c1.103 0 2-.897 2-2v-10c0-1.103-.897-2-2-2v-.539c0-1.235-.762-2.324-1.939-2.773-1.853-.705-4.061-2.265-4.061-5.688v-1.184c1.161-.414 2-1.514 2-2.816zm15-25c.552 0 1 .448 1 1v4c0 6.48-5.165 11.762-11.593 11.979.332-.638.649-1.328.947-2.081 4.901-.669 8.646-4.88 8.646-9.898v-2c0-.553-.447-1-1-1h-5.152c.04-.648.071-1.315.095-2zm-7.304 4h4.304v1c0 3.657-2.485 6.782-5.892 7.714.72-2.385 1.271-5.262 1.588-8.714zm-26.696-10h26l.002 2h-26.002zm.892 18.714c-3.407-.932-5.892-4.057-5.892-7.714v-1h4.304c.317 3.452.867 6.329 1.588 8.714zm-9.892-7.714v-4c0-.552.449-1 1-1h7.057c.024.685.056 1.352.095 2h-5.152c-.552 0-1 .447-1 1v2c0 5.018 3.745 9.229 8.646 9.898.298.753.615 1.444.947 2.081-6.427-.217-11.593-5.5-11.593-11.979zm10.008-7h23.984c-.108 7.955-1.615 24-11.992 24s-11.884-16.045-11.992-24zm11.992 26c1.197 0 2.58-.188 4-.754v1.754c0 .552-.448 1-1 1h-6c-.551 0-1-.448-1-1v-1.754c1.42.565 2.803.754 4 .754zm10.002 26h-20.002v-10h20zm-2.654-13.443c.396.15.652.506.652.904v.539h-16v-.539c0-.398.256-.754.652-.904 3.399-1.295 5.348-4.049 5.348-7.557v-1h4v1c0 3.508 1.949 6.262 5.348 7.557z"/>
  <path d="m34 50h-8c-.552 0-1 .447-1 1s.448 1 1 1h8c.553 0 1-.447 1-1s-.447-1-1-1z"/>
  <path d="m32 54h-4c-.552 0-1 .447-1 1s.448 1 1 1h4c.553 0 1-.447 1-1s-.447-1-1-1z"/>
</symbol>
</defs>
</svg>